G04 #@! TF.FileFunction,Copper,L1,Top,Signal*
%FSLAX46Y46*%
G04 Gerber Fmt 4.6, Leading zero omitted, Abs format (unit mm)*
G04 Created by KiCad (PCBNEW (2015-11-17 BZR 6321)-product) date Thu 03 Dec 2015 08:01:09 PM EST*
%MOMM*%
G01*
G04 APERTURE LIST*
%ADD10C,0.100000*%
%ADD11O,1.600000X1.600000*%
%ADD12C,1.524000*%
%ADD13C,1.676400*%
%ADD14C,1.600200*%
%ADD15R,1.000000X2.750000*%
%ADD16R,1.500000X0.700000*%
%ADD17R,0.800000X1.000000*%
%ADD18C,0.899160*%
%ADD19C,0.600000*%
%ADD20C,1.600000*%
%ADD21C,0.800000*%
%ADD22C,0.400000*%
%ADD23C,0.254000*%
G04 APERTURE END LIST*
D10*
G36*
X103036931Y-77088195D02*
X105511805Y-79563069D01*
X103390485Y-81684389D01*
X100915611Y-79209515D01*
X103036931Y-77088195D01*
X103036931Y-77088195D01*
G37*
G36*
X80763069Y-104311805D02*
X78288195Y-101836931D01*
X80409515Y-99715611D01*
X82884389Y-102190485D01*
X80763069Y-104311805D01*
X80763069Y-104311805D01*
G37*
D11*
X94450000Y-68000000D03*
X91910000Y-68000000D03*
X89370000Y-68000000D03*
X86830000Y-68000000D03*
X86830000Y-75620000D03*
X89370000Y-75620000D03*
X91910000Y-75620000D03*
X94450000Y-75620000D03*
D12*
X101700000Y-96500000D03*
X103821320Y-98621320D03*
D13*
X86257898Y-106400000D03*
X89850000Y-106400000D03*
X89850000Y-109992102D03*
X79903949Y-82796051D03*
X79903949Y-79203949D03*
X83496051Y-79203949D03*
D14*
X96709872Y-107990128D03*
X101200000Y-103500000D03*
D15*
X98450000Y-68750000D03*
X98450000Y-74500000D03*
X102450000Y-74500000D03*
X102450000Y-68750000D03*
X78800000Y-68750000D03*
X78800000Y-74500000D03*
X82800000Y-74500000D03*
X82800000Y-68750000D03*
D16*
X78125000Y-93250000D03*
X78125000Y-96250000D03*
X78125000Y-97750000D03*
D17*
X75275000Y-91850000D03*
X75275000Y-99150000D03*
X77475000Y-99150000D03*
X77475000Y-91850000D03*
D18*
X79560857Y-87685193D02*
X79135193Y-88110857D01*
X78662832Y-86787168D02*
X78237168Y-87212832D01*
X80458883Y-88583219D02*
X80033219Y-89008883D01*
D19*
X104947800Y-78108800D03*
X104439800Y-77626200D03*
X105151000Y-77449000D03*
X77037336Y-70685485D03*
X80800021Y-73158579D03*
X85200000Y-72800000D03*
X104650000Y-82850000D03*
X101100000Y-86050000D03*
X92950000Y-83000000D03*
X79903949Y-85546051D03*
X96337200Y-101375200D03*
X104846200Y-75314800D03*
X96972200Y-70082400D03*
X96972200Y-72139800D03*
X101391800Y-82528400D03*
X99664600Y-80877400D03*
X76296600Y-82579200D03*
X84725000Y-66300000D03*
X82675000Y-65300000D03*
X84275000Y-69250000D03*
X77750000Y-76625000D03*
X82800000Y-77275000D03*
X87375000Y-69450000D03*
X85350000Y-71325000D03*
X90600000Y-73375000D03*
X88325000Y-74025000D03*
X101700000Y-96500000D03*
X84627800Y-76940400D03*
X93725000Y-77200000D03*
X96032400Y-76407000D03*
X77814228Y-72614149D03*
X81250000Y-68575000D03*
X87100000Y-70975000D03*
X101391800Y-77423000D03*
X92908200Y-99952800D03*
X94965600Y-86490800D03*
X98648600Y-77296000D03*
X99664600Y-73282800D03*
X79395400Y-105490000D03*
D20*
X103213708Y-79386292D02*
X105151000Y-77449000D01*
D21*
X80586292Y-102013708D02*
X80586292Y-97161292D01*
X80586292Y-97161292D02*
X79675000Y-96250000D01*
X79675000Y-96250000D02*
X78125000Y-96250000D01*
X81799990Y-75500010D02*
X82800000Y-74500000D01*
X81799990Y-80900010D02*
X81799990Y-75500010D01*
X79903949Y-82796051D02*
X81799990Y-80900010D01*
D22*
X82800000Y-74500000D02*
X82800000Y-75375000D01*
X80800021Y-73400021D02*
X80800021Y-73158579D01*
X81900000Y-74500000D02*
X80800021Y-73400021D01*
X82800000Y-74500000D02*
X81900000Y-74500000D01*
D21*
X86030001Y-68799999D02*
X86830000Y-68000000D01*
X86030001Y-69084227D02*
X86030001Y-68799999D01*
X84277028Y-70837200D02*
X86030001Y-69084227D01*
X83992800Y-70837200D02*
X84277028Y-70837200D01*
X82800000Y-74500000D02*
X83500000Y-74500000D01*
X83500000Y-74500000D02*
X85200000Y-72800000D01*
X101100000Y-86050000D02*
X101450000Y-86050000D01*
X101450000Y-86050000D02*
X104650000Y-82850000D01*
X86257898Y-106400000D02*
X86257898Y-89692102D01*
X86257898Y-89692102D02*
X92950000Y-83000000D01*
X103564799Y-75614799D02*
X102450000Y-74500000D01*
X104546201Y-75614799D02*
X103564799Y-75614799D01*
X104846200Y-75314800D02*
X104546201Y-75614799D01*
X79903949Y-82796051D02*
X79903949Y-85546051D01*
X79903949Y-85546051D02*
X78450000Y-87000000D01*
X96337200Y-101375200D02*
X91282698Y-101375200D01*
X91282698Y-101375200D02*
X86257898Y-106400000D01*
X82800000Y-72030000D02*
X83992800Y-70837200D01*
X82800000Y-68750000D02*
X82800000Y-69644400D01*
X82800000Y-69644400D02*
X83992800Y-70837200D01*
X82800000Y-74500000D02*
X82800000Y-72030000D01*
X96972200Y-72139800D02*
X96972200Y-70082400D01*
X101391800Y-82528400D02*
X101315600Y-82528400D01*
X101315600Y-82528400D02*
X99664600Y-80877400D01*
D20*
X89850000Y-109992102D02*
X94707898Y-109992102D01*
X94707898Y-109992102D02*
X96709872Y-107990128D01*
D21*
X84310782Y-65299990D02*
X91749989Y-65299989D01*
X83110772Y-66500000D02*
X84310782Y-65299990D01*
X82094997Y-66500000D02*
X83110772Y-66500000D01*
X93650001Y-67200001D02*
X94450000Y-68000000D01*
X91749989Y-65299989D02*
X93650001Y-67200001D01*
X81119987Y-67475011D02*
X82094997Y-66500000D01*
X78800000Y-68750000D02*
X80074989Y-67475011D01*
X80074989Y-67475011D02*
X81119987Y-67475011D01*
X78800000Y-68750000D02*
X78800000Y-70204823D01*
X77500000Y-74500000D02*
X78800000Y-74500000D01*
X76799992Y-73799992D02*
X77500000Y-74500000D01*
X78800000Y-70204823D02*
X76799992Y-72204831D01*
X76799992Y-72204831D02*
X76799992Y-73799992D01*
X76296600Y-82154936D02*
X76296600Y-82579200D01*
X76296600Y-79492628D02*
X76296600Y-82154936D01*
X78800000Y-74500000D02*
X78800000Y-76989228D01*
X78800000Y-76989228D02*
X76296600Y-79492628D01*
D22*
X78800000Y-74500000D02*
X78800000Y-76275000D01*
D21*
X85125000Y-67675000D02*
X85125000Y-66700000D01*
X85125000Y-66700000D02*
X84725000Y-66300000D01*
X84275000Y-68525000D02*
X85125000Y-67675000D01*
X84275000Y-69250000D02*
X84275000Y-68525000D01*
X78750000Y-66475000D02*
X80705769Y-66475000D01*
X81880769Y-65300000D02*
X82675000Y-65300000D01*
X80705769Y-66475000D02*
X81880769Y-65300000D01*
X78119998Y-66475000D02*
X78750000Y-66475000D01*
X77050000Y-67544998D02*
X78119998Y-66475000D01*
X77050000Y-68900000D02*
X77050000Y-67544998D01*
X77050000Y-69400000D02*
X77050000Y-68900000D01*
X75799981Y-70650019D02*
X77050000Y-69400000D01*
X77299999Y-76924999D02*
X75799981Y-75424981D01*
X75799981Y-75424981D02*
X75799981Y-70650019D01*
X77450001Y-76924999D02*
X77299999Y-76924999D01*
X77750000Y-76625000D02*
X77450001Y-76924999D01*
X83496051Y-79203949D02*
X83496051Y-77971051D01*
X83496051Y-77971051D02*
X82800000Y-77275000D01*
X85649999Y-71025001D02*
X85350000Y-71325000D01*
X85649999Y-71010773D02*
X85649999Y-71025001D01*
X86910773Y-69749999D02*
X85649999Y-71010773D01*
X87075001Y-69749999D02*
X86910773Y-69749999D01*
X87375000Y-69450000D02*
X87075001Y-69749999D01*
X83496051Y-79203949D02*
X83496051Y-83749999D01*
X83496051Y-83749999D02*
X79348025Y-87898025D01*
X90600000Y-73375000D02*
X89370000Y-72145000D01*
X89370000Y-72145000D02*
X89370000Y-70044228D01*
X84627800Y-74786428D02*
X85194229Y-74219999D01*
X85194229Y-74219999D02*
X88130001Y-74219999D01*
X88130001Y-74219999D02*
X88325000Y-74025000D01*
X84627800Y-74786428D02*
X84627800Y-76516136D01*
X84627800Y-76516136D02*
X84627800Y-76940400D01*
X89370000Y-68000000D02*
X89370000Y-70044228D01*
X93725000Y-77200000D02*
X95239400Y-77200000D01*
X95239400Y-77200000D02*
X95270400Y-77169000D01*
X95270400Y-77169000D02*
X96032400Y-76407000D01*
X81250000Y-68575000D02*
X81250000Y-69178377D01*
X81250000Y-69178377D02*
X78114227Y-72314150D01*
X78114227Y-72314150D02*
X77814228Y-72614149D01*
X89370000Y-75620000D02*
X89370000Y-74025000D01*
X89370000Y-74025000D02*
X89835774Y-74025000D01*
X89370000Y-74025000D02*
X89370000Y-73559229D01*
X89835774Y-74025000D02*
X90185782Y-74375008D01*
X90185782Y-74375008D02*
X91014218Y-74375008D01*
X91014218Y-74375008D02*
X91364226Y-74025000D01*
X91364226Y-74025000D02*
X97975000Y-74025000D01*
X97975000Y-74025000D02*
X98450000Y-74500000D01*
X87399999Y-71589228D02*
X87399999Y-71274999D01*
X87399999Y-71274999D02*
X87100000Y-70975000D01*
X89370000Y-73559229D02*
X87399999Y-71589228D01*
X98450000Y-68750000D02*
X98450000Y-74500000D01*
X101091801Y-77722999D02*
X101391800Y-77423000D01*
X100518790Y-78296010D02*
X101091801Y-77722999D01*
X92724990Y-77614217D02*
X93406783Y-78296010D01*
X93406783Y-78296010D02*
X100518790Y-78296010D01*
X92724990Y-77566360D02*
X92724990Y-77614217D01*
X91910000Y-75620000D02*
X91910000Y-76751370D01*
X91910000Y-76751370D02*
X92724990Y-77566360D01*
X94965600Y-90504000D02*
X94965600Y-97895400D01*
X94965600Y-97895400D02*
X92908200Y-99952800D01*
X94965600Y-86490800D02*
X94965600Y-90504000D01*
X99664600Y-76280000D02*
X98648600Y-77296000D01*
X99664600Y-73282800D02*
X99664600Y-76280000D01*
X77847494Y-89397494D02*
X79644608Y-89397494D01*
X79644608Y-89397494D02*
X80246051Y-88796051D01*
X76450000Y-88000000D02*
X77847494Y-89397494D01*
X76450000Y-86000000D02*
X76450000Y-88000000D01*
X78465748Y-83984252D02*
X76450000Y-86000000D01*
X78465748Y-80642150D02*
X78465748Y-83984252D01*
X79903949Y-79203949D02*
X78465748Y-80642150D01*
X79395400Y-105490000D02*
X77058600Y-103153200D01*
X77058600Y-103153200D02*
X77058600Y-101578400D01*
X78475001Y-98100001D02*
X78125000Y-97750000D01*
X77058600Y-101578400D02*
X78475001Y-100161999D01*
X78475001Y-100161999D02*
X78475001Y-98100001D01*
D23*
G36*
X74931957Y-75988682D02*
X74935354Y-75992937D01*
X74937908Y-75997741D01*
X74998308Y-76071799D01*
X75057978Y-76146547D01*
X75065453Y-76154127D01*
X75065575Y-76154277D01*
X75065714Y-76154392D01*
X75068125Y-76156837D01*
X76568144Y-77656855D01*
X76623330Y-77702186D01*
X75564744Y-78760772D01*
X75504012Y-78834709D01*
X75442608Y-78907887D01*
X75439989Y-78912651D01*
X75436530Y-78916862D01*
X75391321Y-79001178D01*
X75345295Y-79084898D01*
X75343649Y-79090085D01*
X75341077Y-79094883D01*
X75313137Y-79186273D01*
X75284217Y-79277439D01*
X75283610Y-79282853D01*
X75282020Y-79288053D01*
X75272361Y-79383140D01*
X75261701Y-79478177D01*
X75261627Y-79488811D01*
X75261606Y-79489015D01*
X75261624Y-79489205D01*
X75261600Y-79492628D01*
X75261600Y-82579200D01*
X75281311Y-82780233D01*
X75339695Y-82973608D01*
X75434527Y-83151960D01*
X75562194Y-83308496D01*
X75717835Y-83437254D01*
X75895521Y-83533328D01*
X76088484Y-83593060D01*
X76289374Y-83614175D01*
X76490540Y-83595867D01*
X76684318Y-83538835D01*
X76863328Y-83445251D01*
X77020752Y-83318679D01*
X77150592Y-83163941D01*
X77247905Y-82986930D01*
X77308983Y-82794389D01*
X77331499Y-82593651D01*
X77331600Y-82579200D01*
X77331600Y-79921340D01*
X78491920Y-78761020D01*
X78432847Y-79038938D01*
X78430405Y-79213781D01*
X77733892Y-79910294D01*
X77673160Y-79984231D01*
X77611756Y-80057409D01*
X77609137Y-80062173D01*
X77605678Y-80066384D01*
X77560469Y-80150700D01*
X77514443Y-80234420D01*
X77512797Y-80239607D01*
X77510225Y-80244405D01*
X77482285Y-80335795D01*
X77453365Y-80426961D01*
X77452758Y-80432375D01*
X77451168Y-80437575D01*
X77441509Y-80532662D01*
X77430849Y-80627699D01*
X77430775Y-80638333D01*
X77430754Y-80638537D01*
X77430772Y-80638727D01*
X77430748Y-80642150D01*
X77430748Y-83555541D01*
X75718144Y-85268144D01*
X75657412Y-85342081D01*
X75596008Y-85415259D01*
X75593389Y-85420023D01*
X75589930Y-85424234D01*
X75544721Y-85508550D01*
X75498695Y-85592270D01*
X75497049Y-85597457D01*
X75494477Y-85602255D01*
X75466537Y-85693645D01*
X75437617Y-85784811D01*
X75437010Y-85790225D01*
X75435420Y-85795425D01*
X75425761Y-85890512D01*
X75415101Y-85985549D01*
X75415027Y-85996183D01*
X75415006Y-85996387D01*
X75415024Y-85996577D01*
X75415000Y-86000000D01*
X75415000Y-88000000D01*
X75424333Y-88095186D01*
X75432662Y-88190389D01*
X75434180Y-88195612D01*
X75434711Y-88201033D01*
X75462350Y-88292578D01*
X75489017Y-88384366D01*
X75491522Y-88389199D01*
X75493095Y-88394408D01*
X75537965Y-88478796D01*
X75581976Y-88563701D01*
X75585373Y-88567956D01*
X75587927Y-88572760D01*
X75648327Y-88646818D01*
X75707997Y-88721566D01*
X75715472Y-88729146D01*
X75715594Y-88729296D01*
X75715733Y-88729411D01*
X75718144Y-88731856D01*
X77115639Y-90129350D01*
X77189550Y-90190062D01*
X77262753Y-90251486D01*
X77267517Y-90254105D01*
X77271728Y-90257564D01*
X77356044Y-90302773D01*
X77439764Y-90348799D01*
X77444951Y-90350445D01*
X77449749Y-90353017D01*
X77541139Y-90380957D01*
X77632305Y-90409877D01*
X77637719Y-90410484D01*
X77642919Y-90412074D01*
X77738006Y-90421733D01*
X77833043Y-90432393D01*
X77843677Y-90432467D01*
X77843881Y-90432488D01*
X77844071Y-90432470D01*
X77847494Y-90432494D01*
X79644608Y-90432494D01*
X79739794Y-90423161D01*
X79834997Y-90414832D01*
X79840220Y-90413314D01*
X79845641Y-90412783D01*
X79937186Y-90385144D01*
X80028974Y-90358477D01*
X80033807Y-90355972D01*
X80039016Y-90354399D01*
X80123404Y-90309529D01*
X80208309Y-90265518D01*
X80212564Y-90262121D01*
X80217368Y-90259567D01*
X80291426Y-90199167D01*
X80366174Y-90139497D01*
X80373754Y-90132022D01*
X80373904Y-90131900D01*
X80374019Y-90131761D01*
X80376464Y-90129350D01*
X80543198Y-89962616D01*
X80619182Y-89923229D01*
X80784609Y-89791171D01*
X80795392Y-89780538D01*
X81230538Y-89345392D01*
X81364893Y-89181825D01*
X81464919Y-88995277D01*
X81526806Y-88792854D01*
X81548197Y-88582264D01*
X81528277Y-88371530D01*
X81467804Y-88168680D01*
X81369083Y-87981438D01*
X81235873Y-87816937D01*
X81073248Y-87681443D01*
X81044172Y-87665590D01*
X84227907Y-84481854D01*
X84288619Y-84407943D01*
X84350043Y-84334740D01*
X84352662Y-84329976D01*
X84356121Y-84325765D01*
X84401330Y-84241449D01*
X84447356Y-84157729D01*
X84449002Y-84152542D01*
X84451574Y-84147744D01*
X84479514Y-84056354D01*
X84508434Y-83965188D01*
X84509041Y-83959774D01*
X84510631Y-83954574D01*
X84520290Y-83859487D01*
X84530950Y-83764450D01*
X84531024Y-83753816D01*
X84531045Y-83753612D01*
X84531027Y-83753422D01*
X84531051Y-83749999D01*
X84531051Y-80866562D01*
X98629657Y-80866562D01*
X98647262Y-81067789D01*
X98703617Y-81261766D01*
X98796576Y-81441101D01*
X98922597Y-81598966D01*
X98932744Y-81609256D01*
X100583745Y-83260256D01*
X100657656Y-83320968D01*
X100730859Y-83382392D01*
X100735623Y-83385011D01*
X100739834Y-83388470D01*
X100824150Y-83433679D01*
X100907870Y-83479705D01*
X100913057Y-83481351D01*
X100917855Y-83483923D01*
X101009245Y-83511863D01*
X101100411Y-83540783D01*
X101105825Y-83541390D01*
X101111025Y-83542980D01*
X101206112Y-83552639D01*
X101301149Y-83563299D01*
X101311783Y-83563373D01*
X101311987Y-83563394D01*
X101312177Y-83563376D01*
X101315600Y-83563400D01*
X101391800Y-83563400D01*
X101592833Y-83543689D01*
X101786208Y-83485305D01*
X101964560Y-83390473D01*
X102121096Y-83262806D01*
X102249854Y-83107165D01*
X102345928Y-82929479D01*
X102405660Y-82736516D01*
X102426775Y-82535626D01*
X102408467Y-82334460D01*
X102351435Y-82140682D01*
X102257851Y-81961672D01*
X102131279Y-81804248D01*
X101976541Y-81674408D01*
X101862776Y-81611865D01*
X100396456Y-80145544D01*
X100240366Y-80017330D01*
X100062345Y-79921877D01*
X99869175Y-79862820D01*
X99668213Y-79842406D01*
X99467113Y-79861416D01*
X99273535Y-79919124D01*
X99094853Y-80013332D01*
X98937872Y-80140453D01*
X98808572Y-80295644D01*
X98711878Y-80472994D01*
X98651472Y-80665747D01*
X98629657Y-80866562D01*
X84531051Y-80866562D01*
X84531051Y-80252743D01*
X84616652Y-80171226D01*
X84783189Y-79935145D01*
X84900699Y-79671213D01*
X84964706Y-79389483D01*
X84969314Y-79059494D01*
X84913198Y-78776087D01*
X84803103Y-78508977D01*
X84643223Y-78268338D01*
X84531051Y-78155380D01*
X84531051Y-77971051D01*
X84530547Y-77965913D01*
X84620574Y-77975375D01*
X84821740Y-77957067D01*
X85015518Y-77900035D01*
X85194528Y-77806451D01*
X85351952Y-77679879D01*
X85481792Y-77525141D01*
X85579105Y-77348130D01*
X85640183Y-77155589D01*
X85662699Y-76954851D01*
X85662800Y-76940400D01*
X85662800Y-76455443D01*
X85811766Y-76638093D01*
X86027558Y-76816612D01*
X86273915Y-76949817D01*
X86541453Y-77032633D01*
X86819982Y-77061908D01*
X87098892Y-77036525D01*
X87367560Y-76957452D01*
X87615753Y-76827700D01*
X87834017Y-76652211D01*
X88014038Y-76437671D01*
X88100228Y-76280891D01*
X88174758Y-76421060D01*
X88351766Y-76638093D01*
X88567558Y-76816612D01*
X88813915Y-76949817D01*
X89081453Y-77032633D01*
X89359982Y-77061908D01*
X89638892Y-77036525D01*
X89907560Y-76957452D01*
X90155753Y-76827700D01*
X90374017Y-76652211D01*
X90554038Y-76437671D01*
X90640228Y-76280891D01*
X90714758Y-76421060D01*
X90875000Y-76617536D01*
X90875000Y-76751370D01*
X90884333Y-76846556D01*
X90892662Y-76941759D01*
X90894180Y-76946982D01*
X90894711Y-76952403D01*
X90922350Y-77043948D01*
X90949017Y-77135736D01*
X90951522Y-77140569D01*
X90953095Y-77145778D01*
X90997965Y-77230166D01*
X91041976Y-77315071D01*
X91045373Y-77319326D01*
X91047927Y-77324130D01*
X91108327Y-77398188D01*
X91167997Y-77472936D01*
X91175472Y-77480516D01*
X91175594Y-77480666D01*
X91175733Y-77480781D01*
X91178144Y-77483226D01*
X91839886Y-78144967D01*
X91856966Y-78177918D01*
X91860363Y-78182173D01*
X91862917Y-78186977D01*
X91923317Y-78261035D01*
X91982987Y-78335783D01*
X91990462Y-78343363D01*
X91990584Y-78343513D01*
X91990723Y-78343628D01*
X91993134Y-78346073D01*
X92674928Y-79027866D01*
X92748839Y-79088578D01*
X92822042Y-79150002D01*
X92826806Y-79152621D01*
X92831017Y-79156080D01*
X92915333Y-79201289D01*
X92999053Y-79247315D01*
X93004240Y-79248961D01*
X93009038Y-79251533D01*
X93100428Y-79279473D01*
X93191594Y-79308393D01*
X93197008Y-79309000D01*
X93202208Y-79310590D01*
X93297295Y-79320249D01*
X93392332Y-79330909D01*
X93402966Y-79330983D01*
X93403170Y-79331004D01*
X93403360Y-79330986D01*
X93406783Y-79331010D01*
X100291569Y-79331010D01*
X100293021Y-79349222D01*
X100356592Y-79517140D01*
X100464426Y-79660700D01*
X102939300Y-82135574D01*
X103016506Y-82201376D01*
X103175341Y-82285096D01*
X103351211Y-82321251D01*
X103530192Y-82306979D01*
X103698110Y-82243408D01*
X103841670Y-82135574D01*
X105962990Y-80014254D01*
X105990000Y-79982563D01*
X105990000Y-105715280D01*
X105852585Y-107116745D01*
X105455657Y-108431436D01*
X104810928Y-109643995D01*
X103942965Y-110708223D01*
X102884817Y-111583600D01*
X101676791Y-112236777D01*
X100364904Y-112642874D01*
X98965658Y-112789941D01*
X98948665Y-112790000D01*
X81984720Y-112790000D01*
X80583255Y-112652585D01*
X79268564Y-112255657D01*
X78056005Y-111610928D01*
X76991777Y-110742965D01*
X76473084Y-110115973D01*
X88374864Y-110115973D01*
X88427017Y-110400136D01*
X88533372Y-110668757D01*
X88689877Y-110911604D01*
X88890570Y-111119428D01*
X89127808Y-111284313D01*
X89392553Y-111399978D01*
X89674723Y-111462017D01*
X89963569Y-111468067D01*
X90195896Y-111427102D01*
X94707898Y-111427102D01*
X94839810Y-111414168D01*
X94971868Y-111402615D01*
X94979116Y-111400509D01*
X94986624Y-111399773D01*
X95113540Y-111361455D01*
X95240810Y-111324479D01*
X95247505Y-111321008D01*
X95254734Y-111318826D01*
X95371825Y-111256568D01*
X95489455Y-111195594D01*
X95495351Y-111190887D01*
X95502015Y-111187344D01*
X95604735Y-111103567D01*
X95708330Y-111020869D01*
X95718831Y-111010513D01*
X95719048Y-111010336D01*
X95719214Y-111010135D01*
X95722596Y-111006800D01*
X97707489Y-109021907D01*
X97801492Y-108932389D01*
X97963722Y-108702414D01*
X98078193Y-108445308D01*
X98140545Y-108170864D01*
X98142702Y-108016413D01*
X98144863Y-107995137D01*
X98143239Y-107977956D01*
X98145034Y-107849409D01*
X98090369Y-107573331D01*
X97983121Y-107313129D01*
X97827376Y-107078714D01*
X97629065Y-106879014D01*
X97395743Y-106721636D01*
X97136296Y-106612575D01*
X96860607Y-106555984D01*
X96579176Y-106554019D01*
X96302723Y-106606755D01*
X96041779Y-106712183D01*
X95806282Y-106866288D01*
X95605202Y-107063200D01*
X95600420Y-107070184D01*
X94113502Y-108557102D01*
X90186051Y-108557102D01*
X90004736Y-108519883D01*
X89715834Y-108517866D01*
X89432042Y-108572003D01*
X89164170Y-108680230D01*
X88922421Y-108838426D01*
X88716003Y-109040566D01*
X88552779Y-109278949D01*
X88438965Y-109544495D01*
X88378898Y-109827091D01*
X88374864Y-110115973D01*
X76473084Y-110115973D01*
X76116400Y-109684817D01*
X75463223Y-108476791D01*
X75057126Y-107164904D01*
X75014165Y-106756157D01*
X84821053Y-106756157D01*
X84918144Y-107029628D01*
X85066721Y-107278903D01*
X85261075Y-107494402D01*
X85493736Y-107667844D01*
X85755763Y-107792563D01*
X85901741Y-107836845D01*
X86130898Y-107715462D01*
X86130898Y-106527000D01*
X86384898Y-106527000D01*
X86384898Y-107715462D01*
X86614055Y-107836845D01*
X86887526Y-107739754D01*
X87136801Y-107591177D01*
X87352300Y-107396823D01*
X87525742Y-107164162D01*
X87650461Y-106902135D01*
X87694743Y-106756157D01*
X87573360Y-106527000D01*
X86384898Y-106527000D01*
X86130898Y-106527000D01*
X84942436Y-106527000D01*
X84821053Y-106756157D01*
X75014165Y-106756157D01*
X74910059Y-105765658D01*
X74910000Y-105748665D01*
X74910000Y-100288072D01*
X75675000Y-100288072D01*
X75776121Y-100280008D01*
X75947634Y-100226894D01*
X76097559Y-100128100D01*
X76214025Y-99991450D01*
X76287810Y-99827763D01*
X76313072Y-99650000D01*
X76313072Y-98650000D01*
X76305008Y-98548879D01*
X76251894Y-98377366D01*
X76153100Y-98227441D01*
X76016450Y-98110975D01*
X75852763Y-98037190D01*
X75675000Y-98011928D01*
X74910000Y-98011928D01*
X74910000Y-97091230D01*
X75288574Y-97091230D01*
X75326984Y-97300514D01*
X75405314Y-97498351D01*
X75520578Y-97677206D01*
X75668387Y-97830267D01*
X75843111Y-97951703D01*
X76038094Y-98036889D01*
X76245910Y-98082581D01*
X76458643Y-98087037D01*
X76668190Y-98050088D01*
X76736928Y-98023426D01*
X76736928Y-98100000D01*
X76738157Y-98115417D01*
X76652441Y-98171900D01*
X76535975Y-98308550D01*
X76462190Y-98472237D01*
X76436928Y-98650000D01*
X76436928Y-99650000D01*
X76444992Y-99751121D01*
X76498106Y-99922634D01*
X76596900Y-100072559D01*
X76733550Y-100189025D01*
X76897237Y-100262810D01*
X76908831Y-100264458D01*
X76326744Y-100846544D01*
X76266012Y-100920481D01*
X76204608Y-100993659D01*
X76201989Y-100998423D01*
X76198530Y-101002634D01*
X76153321Y-101086950D01*
X76107295Y-101170670D01*
X76105649Y-101175857D01*
X76103077Y-101180655D01*
X76075137Y-101272045D01*
X76046217Y-101363211D01*
X76045610Y-101368625D01*
X76044020Y-101373825D01*
X76034361Y-101468912D01*
X76023701Y-101563949D01*
X76023627Y-101574583D01*
X76023606Y-101574787D01*
X76023624Y-101574977D01*
X76023600Y-101578400D01*
X76023600Y-103153200D01*
X76032933Y-103248386D01*
X76041262Y-103343589D01*
X76042780Y-103348812D01*
X76043311Y-103354233D01*
X76070950Y-103445778D01*
X76097617Y-103537566D01*
X76100122Y-103542399D01*
X76101695Y-103547608D01*
X76146565Y-103631996D01*
X76190576Y-103716901D01*
X76193973Y-103721156D01*
X76196527Y-103725960D01*
X76256927Y-103800018D01*
X76316597Y-103874766D01*
X76324072Y-103882346D01*
X76324194Y-103882496D01*
X76324333Y-103882611D01*
X76326744Y-103885056D01*
X78663544Y-106221855D01*
X78819634Y-106350069D01*
X78997654Y-106445522D01*
X79190825Y-106504580D01*
X79391787Y-106524993D01*
X79403656Y-106523871D01*
X88374864Y-106523871D01*
X88427017Y-106808034D01*
X88533372Y-107076655D01*
X88689877Y-107319502D01*
X88890570Y-107527326D01*
X89127808Y-107692211D01*
X89392553Y-107807876D01*
X89674723Y-107869915D01*
X89963569Y-107875965D01*
X90248090Y-107825797D01*
X90517447Y-107721320D01*
X90761381Y-107566514D01*
X90970601Y-107367277D01*
X91137138Y-107131196D01*
X91254648Y-106867264D01*
X91318655Y-106585534D01*
X91323263Y-106255545D01*
X91267147Y-105972138D01*
X91157052Y-105705028D01*
X90997172Y-105464389D01*
X90793597Y-105259388D01*
X90554080Y-105097832D01*
X90287745Y-104985875D01*
X90004736Y-104927781D01*
X89715834Y-104925764D01*
X89432042Y-104979901D01*
X89164170Y-105088128D01*
X88922421Y-105246324D01*
X88716003Y-105448464D01*
X88552779Y-105686847D01*
X88438965Y-105952393D01*
X88378898Y-106234989D01*
X88374864Y-106523871D01*
X79403656Y-106523871D01*
X79592887Y-106505984D01*
X79786465Y-106448276D01*
X79965147Y-106354067D01*
X80122128Y-106226947D01*
X80251428Y-106071756D01*
X80266646Y-106043843D01*
X84821053Y-106043843D01*
X84942436Y-106273000D01*
X86130898Y-106273000D01*
X86130898Y-105084538D01*
X86384898Y-105084538D01*
X86384898Y-106273000D01*
X87573360Y-106273000D01*
X87694743Y-106043843D01*
X87597652Y-105770372D01*
X87449075Y-105521097D01*
X87254721Y-105305598D01*
X87022060Y-105132156D01*
X86760033Y-105007437D01*
X86614055Y-104963155D01*
X86384898Y-105084538D01*
X86130898Y-105084538D01*
X85901741Y-104963155D01*
X85628270Y-105060246D01*
X85378995Y-105208823D01*
X85163496Y-105403177D01*
X84990054Y-105635838D01*
X84865335Y-105897865D01*
X84821053Y-106043843D01*
X80266646Y-106043843D01*
X80348122Y-105894406D01*
X80408528Y-105701653D01*
X80430343Y-105500838D01*
X80412738Y-105299611D01*
X80356383Y-105105634D01*
X80263424Y-104926299D01*
X80137402Y-104768434D01*
X80127255Y-104758144D01*
X78093600Y-102724488D01*
X78093600Y-102544706D01*
X80311884Y-104762990D01*
X80389090Y-104828792D01*
X80547925Y-104912512D01*
X80723795Y-104948667D01*
X80902776Y-104934395D01*
X81070694Y-104870824D01*
X81214254Y-104762990D01*
X82356577Y-103620667D01*
X99763013Y-103620667D01*
X99813818Y-103897481D01*
X99917422Y-104159155D01*
X100069880Y-104395722D01*
X100265383Y-104598172D01*
X100496485Y-104758792D01*
X100754384Y-104871465D01*
X101029256Y-104931900D01*
X101310632Y-104937794D01*
X101587794Y-104888923D01*
X101850185Y-104787148D01*
X102087811Y-104636346D01*
X102291620Y-104442261D01*
X102453850Y-104212286D01*
X102568321Y-103955180D01*
X102630673Y-103680736D01*
X102635162Y-103359281D01*
X102580497Y-103083203D01*
X102473249Y-102823001D01*
X102317504Y-102588586D01*
X102119193Y-102388886D01*
X101885871Y-102231508D01*
X101626424Y-102122447D01*
X101350735Y-102065856D01*
X101069304Y-102063891D01*
X100792851Y-102116627D01*
X100531907Y-102222055D01*
X100296410Y-102376160D01*
X100095330Y-102573072D01*
X99936327Y-102805290D01*
X99825457Y-103063969D01*
X99766943Y-103339257D01*
X99763013Y-103620667D01*
X82356577Y-103620667D01*
X83335574Y-102641670D01*
X83401376Y-102564464D01*
X83485096Y-102405629D01*
X83521251Y-102229759D01*
X83506979Y-102050778D01*
X83443408Y-101882860D01*
X83335574Y-101739300D01*
X81621292Y-100025018D01*
X81621292Y-99949187D01*
X91873206Y-99949187D01*
X91892216Y-100150287D01*
X91949924Y-100343865D01*
X92044132Y-100522547D01*
X92171253Y-100679528D01*
X92326444Y-100808828D01*
X92503794Y-100905522D01*
X92696547Y-100965928D01*
X92897362Y-100987743D01*
X93098589Y-100970138D01*
X93292566Y-100913783D01*
X93471901Y-100820824D01*
X93629766Y-100694803D01*
X93640056Y-100684656D01*
X95359260Y-98965452D01*
X102460397Y-98965452D01*
X102553684Y-99224343D01*
X102695685Y-99460060D01*
X102880944Y-99663544D01*
X103102341Y-99826976D01*
X103351368Y-99944076D01*
X103477188Y-99982243D01*
X103694320Y-99859835D01*
X103694320Y-98748320D01*
X103948320Y-98748320D01*
X103948320Y-99859835D01*
X104165452Y-99982243D01*
X104424343Y-99888956D01*
X104660060Y-99746955D01*
X104863544Y-99561696D01*
X105026976Y-99340299D01*
X105144076Y-99091272D01*
X105182243Y-98965452D01*
X105059835Y-98748320D01*
X103948320Y-98748320D01*
X103694320Y-98748320D01*
X102582805Y-98748320D01*
X102460397Y-98965452D01*
X95359260Y-98965452D01*
X95697456Y-98627256D01*
X95758188Y-98553319D01*
X95819592Y-98480141D01*
X95822211Y-98475377D01*
X95825670Y-98471166D01*
X95870879Y-98386850D01*
X95916905Y-98303130D01*
X95918551Y-98297943D01*
X95921123Y-98293145D01*
X95926001Y-98277188D01*
X102460397Y-98277188D01*
X102582805Y-98494320D01*
X103694320Y-98494320D01*
X103694320Y-97382805D01*
X103948320Y-97382805D01*
X103948320Y-98494320D01*
X105059835Y-98494320D01*
X105182243Y-98277188D01*
X105088956Y-98018297D01*
X104946955Y-97782580D01*
X104761696Y-97579096D01*
X104540299Y-97415664D01*
X104291272Y-97298564D01*
X104165452Y-97260397D01*
X103948320Y-97382805D01*
X103694320Y-97382805D01*
X103477188Y-97260397D01*
X103218297Y-97353684D01*
X102982580Y-97495685D01*
X102779096Y-97680944D01*
X102615664Y-97902341D01*
X102498564Y-98151368D01*
X102460397Y-98277188D01*
X95926001Y-98277188D01*
X95949063Y-98201755D01*
X95977983Y-98110589D01*
X95978590Y-98105175D01*
X95980180Y-98099975D01*
X95989839Y-98004888D01*
X96000499Y-97909851D01*
X96000573Y-97899217D01*
X96000594Y-97899013D01*
X96000576Y-97898823D01*
X96000600Y-97895400D01*
X96000600Y-96617464D01*
X100301164Y-96617464D01*
X100350620Y-96886928D01*
X100451474Y-97141655D01*
X100599883Y-97371942D01*
X100790196Y-97569016D01*
X101015163Y-97725372D01*
X101266215Y-97835054D01*
X101533789Y-97893884D01*
X101807695Y-97899622D01*
X102077499Y-97852048D01*
X102332923Y-97752975D01*
X102564240Y-97606177D01*
X102762639Y-97417245D01*
X102920561Y-97193375D01*
X103031993Y-96943095D01*
X103092690Y-96675938D01*
X103097059Y-96363017D01*
X103043846Y-96094269D01*
X102939446Y-95840975D01*
X102787835Y-95612783D01*
X102594790Y-95418385D01*
X102367662Y-95265185D01*
X102115103Y-95159019D01*
X101846733Y-95103931D01*
X101572774Y-95102018D01*
X101303661Y-95153354D01*
X101049644Y-95255984D01*
X100820399Y-95405997D01*
X100624658Y-95597681D01*
X100469877Y-95823734D01*
X100361950Y-96075546D01*
X100304989Y-96343524D01*
X100301164Y-96617464D01*
X96000600Y-96617464D01*
X96000600Y-86490800D01*
X95980889Y-86289767D01*
X95922505Y-86096392D01*
X95827673Y-85918040D01*
X95700006Y-85761504D01*
X95544365Y-85632746D01*
X95366679Y-85536672D01*
X95173716Y-85476940D01*
X94972826Y-85455825D01*
X94771660Y-85474133D01*
X94577882Y-85531165D01*
X94398872Y-85624749D01*
X94241448Y-85751321D01*
X94111608Y-85906059D01*
X94014295Y-86083070D01*
X93953217Y-86275611D01*
X93930701Y-86476349D01*
X93930600Y-86490800D01*
X93930600Y-97466688D01*
X92176344Y-99220944D01*
X92048130Y-99377034D01*
X91952677Y-99555055D01*
X91893620Y-99748225D01*
X91873206Y-99949187D01*
X81621292Y-99949187D01*
X81621292Y-97161292D01*
X81611964Y-97066151D01*
X81603630Y-96970903D01*
X81602112Y-96965680D01*
X81601581Y-96960259D01*
X81573938Y-96868701D01*
X81547275Y-96776927D01*
X81544770Y-96772095D01*
X81543197Y-96766884D01*
X81498338Y-96682517D01*
X81454317Y-96597591D01*
X81450918Y-96593333D01*
X81448365Y-96588532D01*
X81387968Y-96514478D01*
X81328295Y-96439727D01*
X81320825Y-96432152D01*
X81320698Y-96431996D01*
X81320554Y-96431877D01*
X81318148Y-96429437D01*
X80406856Y-95518144D01*
X80332919Y-95457412D01*
X80259741Y-95396008D01*
X80254977Y-95393389D01*
X80250766Y-95389930D01*
X80166450Y-95344721D01*
X80082730Y-95298695D01*
X80077543Y-95297049D01*
X80072745Y-95294477D01*
X79981355Y-95266537D01*
X79890189Y-95237617D01*
X79884775Y-95237010D01*
X79879575Y-95235420D01*
X79784488Y-95225761D01*
X79689451Y-95215101D01*
X79678817Y-95215027D01*
X79678613Y-95215006D01*
X79678423Y-95215024D01*
X79675000Y-95215000D01*
X78125000Y-95215000D01*
X77923967Y-95234711D01*
X77833821Y-95261928D01*
X77375000Y-95261928D01*
X77273879Y-95269992D01*
X77102366Y-95323106D01*
X76952441Y-95421900D01*
X76835975Y-95558550D01*
X76762190Y-95722237D01*
X76736928Y-95900000D01*
X76736928Y-95975126D01*
X76697396Y-95958508D01*
X76488962Y-95915723D01*
X76276188Y-95914237D01*
X76067177Y-95954108D01*
X75869891Y-96033817D01*
X75691845Y-96150327D01*
X75539820Y-96299201D01*
X75419607Y-96474768D01*
X75335784Y-96670341D01*
X75291545Y-96878471D01*
X75288574Y-97091230D01*
X74910000Y-97091230D01*
X74910000Y-94091230D01*
X75288574Y-94091230D01*
X75326984Y-94300514D01*
X75405314Y-94498351D01*
X75520578Y-94677206D01*
X75668387Y-94830267D01*
X75843111Y-94951703D01*
X76038094Y-95036889D01*
X76245910Y-95082581D01*
X76458643Y-95087037D01*
X76668190Y-95050088D01*
X76866569Y-94973142D01*
X77046225Y-94859129D01*
X77200314Y-94712392D01*
X77322967Y-94538520D01*
X77409512Y-94344136D01*
X77433609Y-94238072D01*
X78875000Y-94238072D01*
X78976121Y-94230008D01*
X79147634Y-94176894D01*
X79297559Y-94078100D01*
X79414025Y-93941450D01*
X79487810Y-93777763D01*
X79513072Y-93600000D01*
X79513072Y-92900000D01*
X79505008Y-92798879D01*
X79451894Y-92627366D01*
X79353100Y-92477441D01*
X79216450Y-92360975D01*
X79052763Y-92287190D01*
X78875000Y-92261928D01*
X78513072Y-92261928D01*
X78513072Y-91350000D01*
X78505008Y-91248879D01*
X78451894Y-91077366D01*
X78353100Y-90927441D01*
X78216450Y-90810975D01*
X78052763Y-90737190D01*
X77875000Y-90711928D01*
X77075000Y-90711928D01*
X76973879Y-90719992D01*
X76802366Y-90773106D01*
X76652441Y-90871900D01*
X76535975Y-91008550D01*
X76462190Y-91172237D01*
X76436928Y-91350000D01*
X76436928Y-92350000D01*
X76444992Y-92451121D01*
X76498106Y-92622634D01*
X76596900Y-92772559D01*
X76733550Y-92889025D01*
X76738190Y-92891117D01*
X76736928Y-92900000D01*
X76736928Y-92975126D01*
X76697396Y-92958508D01*
X76488962Y-92915723D01*
X76276188Y-92914237D01*
X76067177Y-92954108D01*
X75869891Y-93033817D01*
X75691845Y-93150327D01*
X75539820Y-93299201D01*
X75419607Y-93474768D01*
X75335784Y-93670341D01*
X75291545Y-93878471D01*
X75288574Y-94091230D01*
X74910000Y-94091230D01*
X74910000Y-92988072D01*
X75675000Y-92988072D01*
X75776121Y-92980008D01*
X75947634Y-92926894D01*
X76097559Y-92828100D01*
X76214025Y-92691450D01*
X76287810Y-92527763D01*
X76313072Y-92350000D01*
X76313072Y-91350000D01*
X76305008Y-91248879D01*
X76251894Y-91077366D01*
X76153100Y-90927441D01*
X76016450Y-90810975D01*
X75852763Y-90737190D01*
X75675000Y-90711928D01*
X74910000Y-90711928D01*
X74910000Y-75946323D01*
X74931957Y-75988682D01*
X74931957Y-75988682D01*
G37*
X74931957Y-75988682D02*
X74935354Y-75992937D01*
X74937908Y-75997741D01*
X74998308Y-76071799D01*
X75057978Y-76146547D01*
X75065453Y-76154127D01*
X75065575Y-76154277D01*
X75065714Y-76154392D01*
X75068125Y-76156837D01*
X76568144Y-77656855D01*
X76623330Y-77702186D01*
X75564744Y-78760772D01*
X75504012Y-78834709D01*
X75442608Y-78907887D01*
X75439989Y-78912651D01*
X75436530Y-78916862D01*
X75391321Y-79001178D01*
X75345295Y-79084898D01*
X75343649Y-79090085D01*
X75341077Y-79094883D01*
X75313137Y-79186273D01*
X75284217Y-79277439D01*
X75283610Y-79282853D01*
X75282020Y-79288053D01*
X75272361Y-79383140D01*
X75261701Y-79478177D01*
X75261627Y-79488811D01*
X75261606Y-79489015D01*
X75261624Y-79489205D01*
X75261600Y-79492628D01*
X75261600Y-82579200D01*
X75281311Y-82780233D01*
X75339695Y-82973608D01*
X75434527Y-83151960D01*
X75562194Y-83308496D01*
X75717835Y-83437254D01*
X75895521Y-83533328D01*
X76088484Y-83593060D01*
X76289374Y-83614175D01*
X76490540Y-83595867D01*
X76684318Y-83538835D01*
X76863328Y-83445251D01*
X77020752Y-83318679D01*
X77150592Y-83163941D01*
X77247905Y-82986930D01*
X77308983Y-82794389D01*
X77331499Y-82593651D01*
X77331600Y-82579200D01*
X77331600Y-79921340D01*
X78491920Y-78761020D01*
X78432847Y-79038938D01*
X78430405Y-79213781D01*
X77733892Y-79910294D01*
X77673160Y-79984231D01*
X77611756Y-80057409D01*
X77609137Y-80062173D01*
X77605678Y-80066384D01*
X77560469Y-80150700D01*
X77514443Y-80234420D01*
X77512797Y-80239607D01*
X77510225Y-80244405D01*
X77482285Y-80335795D01*
X77453365Y-80426961D01*
X77452758Y-80432375D01*
X77451168Y-80437575D01*
X77441509Y-80532662D01*
X77430849Y-80627699D01*
X77430775Y-80638333D01*
X77430754Y-80638537D01*
X77430772Y-80638727D01*
X77430748Y-80642150D01*
X77430748Y-83555541D01*
X75718144Y-85268144D01*
X75657412Y-85342081D01*
X75596008Y-85415259D01*
X75593389Y-85420023D01*
X75589930Y-85424234D01*
X75544721Y-85508550D01*
X75498695Y-85592270D01*
X75497049Y-85597457D01*
X75494477Y-85602255D01*
X75466537Y-85693645D01*
X75437617Y-85784811D01*
X75437010Y-85790225D01*
X75435420Y-85795425D01*
X75425761Y-85890512D01*
X75415101Y-85985549D01*
X75415027Y-85996183D01*
X75415006Y-85996387D01*
X75415024Y-85996577D01*
X75415000Y-86000000D01*
X75415000Y-88000000D01*
X75424333Y-88095186D01*
X75432662Y-88190389D01*
X75434180Y-88195612D01*
X75434711Y-88201033D01*
X75462350Y-88292578D01*
X75489017Y-88384366D01*
X75491522Y-88389199D01*
X75493095Y-88394408D01*
X75537965Y-88478796D01*
X75581976Y-88563701D01*
X75585373Y-88567956D01*
X75587927Y-88572760D01*
X75648327Y-88646818D01*
X75707997Y-88721566D01*
X75715472Y-88729146D01*
X75715594Y-88729296D01*
X75715733Y-88729411D01*
X75718144Y-88731856D01*
X77115639Y-90129350D01*
X77189550Y-90190062D01*
X77262753Y-90251486D01*
X77267517Y-90254105D01*
X77271728Y-90257564D01*
X77356044Y-90302773D01*
X77439764Y-90348799D01*
X77444951Y-90350445D01*
X77449749Y-90353017D01*
X77541139Y-90380957D01*
X77632305Y-90409877D01*
X77637719Y-90410484D01*
X77642919Y-90412074D01*
X77738006Y-90421733D01*
X77833043Y-90432393D01*
X77843677Y-90432467D01*
X77843881Y-90432488D01*
X77844071Y-90432470D01*
X77847494Y-90432494D01*
X79644608Y-90432494D01*
X79739794Y-90423161D01*
X79834997Y-90414832D01*
X79840220Y-90413314D01*
X79845641Y-90412783D01*
X79937186Y-90385144D01*
X80028974Y-90358477D01*
X80033807Y-90355972D01*
X80039016Y-90354399D01*
X80123404Y-90309529D01*
X80208309Y-90265518D01*
X80212564Y-90262121D01*
X80217368Y-90259567D01*
X80291426Y-90199167D01*
X80366174Y-90139497D01*
X80373754Y-90132022D01*
X80373904Y-90131900D01*
X80374019Y-90131761D01*
X80376464Y-90129350D01*
X80543198Y-89962616D01*
X80619182Y-89923229D01*
X80784609Y-89791171D01*
X80795392Y-89780538D01*
X81230538Y-89345392D01*
X81364893Y-89181825D01*
X81464919Y-88995277D01*
X81526806Y-88792854D01*
X81548197Y-88582264D01*
X81528277Y-88371530D01*
X81467804Y-88168680D01*
X81369083Y-87981438D01*
X81235873Y-87816937D01*
X81073248Y-87681443D01*
X81044172Y-87665590D01*
X84227907Y-84481854D01*
X84288619Y-84407943D01*
X84350043Y-84334740D01*
X84352662Y-84329976D01*
X84356121Y-84325765D01*
X84401330Y-84241449D01*
X84447356Y-84157729D01*
X84449002Y-84152542D01*
X84451574Y-84147744D01*
X84479514Y-84056354D01*
X84508434Y-83965188D01*
X84509041Y-83959774D01*
X84510631Y-83954574D01*
X84520290Y-83859487D01*
X84530950Y-83764450D01*
X84531024Y-83753816D01*
X84531045Y-83753612D01*
X84531027Y-83753422D01*
X84531051Y-83749999D01*
X84531051Y-80866562D01*
X98629657Y-80866562D01*
X98647262Y-81067789D01*
X98703617Y-81261766D01*
X98796576Y-81441101D01*
X98922597Y-81598966D01*
X98932744Y-81609256D01*
X100583745Y-83260256D01*
X100657656Y-83320968D01*
X100730859Y-83382392D01*
X100735623Y-83385011D01*
X100739834Y-83388470D01*
X100824150Y-83433679D01*
X100907870Y-83479705D01*
X100913057Y-83481351D01*
X100917855Y-83483923D01*
X101009245Y-83511863D01*
X101100411Y-83540783D01*
X101105825Y-83541390D01*
X101111025Y-83542980D01*
X101206112Y-83552639D01*
X101301149Y-83563299D01*
X101311783Y-83563373D01*
X101311987Y-83563394D01*
X101312177Y-83563376D01*
X101315600Y-83563400D01*
X101391800Y-83563400D01*
X101592833Y-83543689D01*
X101786208Y-83485305D01*
X101964560Y-83390473D01*
X102121096Y-83262806D01*
X102249854Y-83107165D01*
X102345928Y-82929479D01*
X102405660Y-82736516D01*
X102426775Y-82535626D01*
X102408467Y-82334460D01*
X102351435Y-82140682D01*
X102257851Y-81961672D01*
X102131279Y-81804248D01*
X101976541Y-81674408D01*
X101862776Y-81611865D01*
X100396456Y-80145544D01*
X100240366Y-80017330D01*
X100062345Y-79921877D01*
X99869175Y-79862820D01*
X99668213Y-79842406D01*
X99467113Y-79861416D01*
X99273535Y-79919124D01*
X99094853Y-80013332D01*
X98937872Y-80140453D01*
X98808572Y-80295644D01*
X98711878Y-80472994D01*
X98651472Y-80665747D01*
X98629657Y-80866562D01*
X84531051Y-80866562D01*
X84531051Y-80252743D01*
X84616652Y-80171226D01*
X84783189Y-79935145D01*
X84900699Y-79671213D01*
X84964706Y-79389483D01*
X84969314Y-79059494D01*
X84913198Y-78776087D01*
X84803103Y-78508977D01*
X84643223Y-78268338D01*
X84531051Y-78155380D01*
X84531051Y-77971051D01*
X84530547Y-77965913D01*
X84620574Y-77975375D01*
X84821740Y-77957067D01*
X85015518Y-77900035D01*
X85194528Y-77806451D01*
X85351952Y-77679879D01*
X85481792Y-77525141D01*
X85579105Y-77348130D01*
X85640183Y-77155589D01*
X85662699Y-76954851D01*
X85662800Y-76940400D01*
X85662800Y-76455443D01*
X85811766Y-76638093D01*
X86027558Y-76816612D01*
X86273915Y-76949817D01*
X86541453Y-77032633D01*
X86819982Y-77061908D01*
X87098892Y-77036525D01*
X87367560Y-76957452D01*
X87615753Y-76827700D01*
X87834017Y-76652211D01*
X88014038Y-76437671D01*
X88100228Y-76280891D01*
X88174758Y-76421060D01*
X88351766Y-76638093D01*
X88567558Y-76816612D01*
X88813915Y-76949817D01*
X89081453Y-77032633D01*
X89359982Y-77061908D01*
X89638892Y-77036525D01*
X89907560Y-76957452D01*
X90155753Y-76827700D01*
X90374017Y-76652211D01*
X90554038Y-76437671D01*
X90640228Y-76280891D01*
X90714758Y-76421060D01*
X90875000Y-76617536D01*
X90875000Y-76751370D01*
X90884333Y-76846556D01*
X90892662Y-76941759D01*
X90894180Y-76946982D01*
X90894711Y-76952403D01*
X90922350Y-77043948D01*
X90949017Y-77135736D01*
X90951522Y-77140569D01*
X90953095Y-77145778D01*
X90997965Y-77230166D01*
X91041976Y-77315071D01*
X91045373Y-77319326D01*
X91047927Y-77324130D01*
X91108327Y-77398188D01*
X91167997Y-77472936D01*
X91175472Y-77480516D01*
X91175594Y-77480666D01*
X91175733Y-77480781D01*
X91178144Y-77483226D01*
X91839886Y-78144967D01*
X91856966Y-78177918D01*
X91860363Y-78182173D01*
X91862917Y-78186977D01*
X91923317Y-78261035D01*
X91982987Y-78335783D01*
X91990462Y-78343363D01*
X91990584Y-78343513D01*
X91990723Y-78343628D01*
X91993134Y-78346073D01*
X92674928Y-79027866D01*
X92748839Y-79088578D01*
X92822042Y-79150002D01*
X92826806Y-79152621D01*
X92831017Y-79156080D01*
X92915333Y-79201289D01*
X92999053Y-79247315D01*
X93004240Y-79248961D01*
X93009038Y-79251533D01*
X93100428Y-79279473D01*
X93191594Y-79308393D01*
X93197008Y-79309000D01*
X93202208Y-79310590D01*
X93297295Y-79320249D01*
X93392332Y-79330909D01*
X93402966Y-79330983D01*
X93403170Y-79331004D01*
X93403360Y-79330986D01*
X93406783Y-79331010D01*
X100291569Y-79331010D01*
X100293021Y-79349222D01*
X100356592Y-79517140D01*
X100464426Y-79660700D01*
X102939300Y-82135574D01*
X103016506Y-82201376D01*
X103175341Y-82285096D01*
X103351211Y-82321251D01*
X103530192Y-82306979D01*
X103698110Y-82243408D01*
X103841670Y-82135574D01*
X105962990Y-80014254D01*
X105990000Y-79982563D01*
X105990000Y-105715280D01*
X105852585Y-107116745D01*
X105455657Y-108431436D01*
X104810928Y-109643995D01*
X103942965Y-110708223D01*
X102884817Y-111583600D01*
X101676791Y-112236777D01*
X100364904Y-112642874D01*
X98965658Y-112789941D01*
X98948665Y-112790000D01*
X81984720Y-112790000D01*
X80583255Y-112652585D01*
X79268564Y-112255657D01*
X78056005Y-111610928D01*
X76991777Y-110742965D01*
X76473084Y-110115973D01*
X88374864Y-110115973D01*
X88427017Y-110400136D01*
X88533372Y-110668757D01*
X88689877Y-110911604D01*
X88890570Y-111119428D01*
X89127808Y-111284313D01*
X89392553Y-111399978D01*
X89674723Y-111462017D01*
X89963569Y-111468067D01*
X90195896Y-111427102D01*
X94707898Y-111427102D01*
X94839810Y-111414168D01*
X94971868Y-111402615D01*
X94979116Y-111400509D01*
X94986624Y-111399773D01*
X95113540Y-111361455D01*
X95240810Y-111324479D01*
X95247505Y-111321008D01*
X95254734Y-111318826D01*
X95371825Y-111256568D01*
X95489455Y-111195594D01*
X95495351Y-111190887D01*
X95502015Y-111187344D01*
X95604735Y-111103567D01*
X95708330Y-111020869D01*
X95718831Y-111010513D01*
X95719048Y-111010336D01*
X95719214Y-111010135D01*
X95722596Y-111006800D01*
X97707489Y-109021907D01*
X97801492Y-108932389D01*
X97963722Y-108702414D01*
X98078193Y-108445308D01*
X98140545Y-108170864D01*
X98142702Y-108016413D01*
X98144863Y-107995137D01*
X98143239Y-107977956D01*
X98145034Y-107849409D01*
X98090369Y-107573331D01*
X97983121Y-107313129D01*
X97827376Y-107078714D01*
X97629065Y-106879014D01*
X97395743Y-106721636D01*
X97136296Y-106612575D01*
X96860607Y-106555984D01*
X96579176Y-106554019D01*
X96302723Y-106606755D01*
X96041779Y-106712183D01*
X95806282Y-106866288D01*
X95605202Y-107063200D01*
X95600420Y-107070184D01*
X94113502Y-108557102D01*
X90186051Y-108557102D01*
X90004736Y-108519883D01*
X89715834Y-108517866D01*
X89432042Y-108572003D01*
X89164170Y-108680230D01*
X88922421Y-108838426D01*
X88716003Y-109040566D01*
X88552779Y-109278949D01*
X88438965Y-109544495D01*
X88378898Y-109827091D01*
X88374864Y-110115973D01*
X76473084Y-110115973D01*
X76116400Y-109684817D01*
X75463223Y-108476791D01*
X75057126Y-107164904D01*
X75014165Y-106756157D01*
X84821053Y-106756157D01*
X84918144Y-107029628D01*
X85066721Y-107278903D01*
X85261075Y-107494402D01*
X85493736Y-107667844D01*
X85755763Y-107792563D01*
X85901741Y-107836845D01*
X86130898Y-107715462D01*
X86130898Y-106527000D01*
X86384898Y-106527000D01*
X86384898Y-107715462D01*
X86614055Y-107836845D01*
X86887526Y-107739754D01*
X87136801Y-107591177D01*
X87352300Y-107396823D01*
X87525742Y-107164162D01*
X87650461Y-106902135D01*
X87694743Y-106756157D01*
X87573360Y-106527000D01*
X86384898Y-106527000D01*
X86130898Y-106527000D01*
X84942436Y-106527000D01*
X84821053Y-106756157D01*
X75014165Y-106756157D01*
X74910059Y-105765658D01*
X74910000Y-105748665D01*
X74910000Y-100288072D01*
X75675000Y-100288072D01*
X75776121Y-100280008D01*
X75947634Y-100226894D01*
X76097559Y-100128100D01*
X76214025Y-99991450D01*
X76287810Y-99827763D01*
X76313072Y-99650000D01*
X76313072Y-98650000D01*
X76305008Y-98548879D01*
X76251894Y-98377366D01*
X76153100Y-98227441D01*
X76016450Y-98110975D01*
X75852763Y-98037190D01*
X75675000Y-98011928D01*
X74910000Y-98011928D01*
X74910000Y-97091230D01*
X75288574Y-97091230D01*
X75326984Y-97300514D01*
X75405314Y-97498351D01*
X75520578Y-97677206D01*
X75668387Y-97830267D01*
X75843111Y-97951703D01*
X76038094Y-98036889D01*
X76245910Y-98082581D01*
X76458643Y-98087037D01*
X76668190Y-98050088D01*
X76736928Y-98023426D01*
X76736928Y-98100000D01*
X76738157Y-98115417D01*
X76652441Y-98171900D01*
X76535975Y-98308550D01*
X76462190Y-98472237D01*
X76436928Y-98650000D01*
X76436928Y-99650000D01*
X76444992Y-99751121D01*
X76498106Y-99922634D01*
X76596900Y-100072559D01*
X76733550Y-100189025D01*
X76897237Y-100262810D01*
X76908831Y-100264458D01*
X76326744Y-100846544D01*
X76266012Y-100920481D01*
X76204608Y-100993659D01*
X76201989Y-100998423D01*
X76198530Y-101002634D01*
X76153321Y-101086950D01*
X76107295Y-101170670D01*
X76105649Y-101175857D01*
X76103077Y-101180655D01*
X76075137Y-101272045D01*
X76046217Y-101363211D01*
X76045610Y-101368625D01*
X76044020Y-101373825D01*
X76034361Y-101468912D01*
X76023701Y-101563949D01*
X76023627Y-101574583D01*
X76023606Y-101574787D01*
X76023624Y-101574977D01*
X76023600Y-101578400D01*
X76023600Y-103153200D01*
X76032933Y-103248386D01*
X76041262Y-103343589D01*
X76042780Y-103348812D01*
X76043311Y-103354233D01*
X76070950Y-103445778D01*
X76097617Y-103537566D01*
X76100122Y-103542399D01*
X76101695Y-103547608D01*
X76146565Y-103631996D01*
X76190576Y-103716901D01*
X76193973Y-103721156D01*
X76196527Y-103725960D01*
X76256927Y-103800018D01*
X76316597Y-103874766D01*
X76324072Y-103882346D01*
X76324194Y-103882496D01*
X76324333Y-103882611D01*
X76326744Y-103885056D01*
X78663544Y-106221855D01*
X78819634Y-106350069D01*
X78997654Y-106445522D01*
X79190825Y-106504580D01*
X79391787Y-106524993D01*
X79403656Y-106523871D01*
X88374864Y-106523871D01*
X88427017Y-106808034D01*
X88533372Y-107076655D01*
X88689877Y-107319502D01*
X88890570Y-107527326D01*
X89127808Y-107692211D01*
X89392553Y-107807876D01*
X89674723Y-107869915D01*
X89963569Y-107875965D01*
X90248090Y-107825797D01*
X90517447Y-107721320D01*
X90761381Y-107566514D01*
X90970601Y-107367277D01*
X91137138Y-107131196D01*
X91254648Y-106867264D01*
X91318655Y-106585534D01*
X91323263Y-106255545D01*
X91267147Y-105972138D01*
X91157052Y-105705028D01*
X90997172Y-105464389D01*
X90793597Y-105259388D01*
X90554080Y-105097832D01*
X90287745Y-104985875D01*
X90004736Y-104927781D01*
X89715834Y-104925764D01*
X89432042Y-104979901D01*
X89164170Y-105088128D01*
X88922421Y-105246324D01*
X88716003Y-105448464D01*
X88552779Y-105686847D01*
X88438965Y-105952393D01*
X88378898Y-106234989D01*
X88374864Y-106523871D01*
X79403656Y-106523871D01*
X79592887Y-106505984D01*
X79786465Y-106448276D01*
X79965147Y-106354067D01*
X80122128Y-106226947D01*
X80251428Y-106071756D01*
X80266646Y-106043843D01*
X84821053Y-106043843D01*
X84942436Y-106273000D01*
X86130898Y-106273000D01*
X86130898Y-105084538D01*
X86384898Y-105084538D01*
X86384898Y-106273000D01*
X87573360Y-106273000D01*
X87694743Y-106043843D01*
X87597652Y-105770372D01*
X87449075Y-105521097D01*
X87254721Y-105305598D01*
X87022060Y-105132156D01*
X86760033Y-105007437D01*
X86614055Y-104963155D01*
X86384898Y-105084538D01*
X86130898Y-105084538D01*
X85901741Y-104963155D01*
X85628270Y-105060246D01*
X85378995Y-105208823D01*
X85163496Y-105403177D01*
X84990054Y-105635838D01*
X84865335Y-105897865D01*
X84821053Y-106043843D01*
X80266646Y-106043843D01*
X80348122Y-105894406D01*
X80408528Y-105701653D01*
X80430343Y-105500838D01*
X80412738Y-105299611D01*
X80356383Y-105105634D01*
X80263424Y-104926299D01*
X80137402Y-104768434D01*
X80127255Y-104758144D01*
X78093600Y-102724488D01*
X78093600Y-102544706D01*
X80311884Y-104762990D01*
X80389090Y-104828792D01*
X80547925Y-104912512D01*
X80723795Y-104948667D01*
X80902776Y-104934395D01*
X81070694Y-104870824D01*
X81214254Y-104762990D01*
X82356577Y-103620667D01*
X99763013Y-103620667D01*
X99813818Y-103897481D01*
X99917422Y-104159155D01*
X100069880Y-104395722D01*
X100265383Y-104598172D01*
X100496485Y-104758792D01*
X100754384Y-104871465D01*
X101029256Y-104931900D01*
X101310632Y-104937794D01*
X101587794Y-104888923D01*
X101850185Y-104787148D01*
X102087811Y-104636346D01*
X102291620Y-104442261D01*
X102453850Y-104212286D01*
X102568321Y-103955180D01*
X102630673Y-103680736D01*
X102635162Y-103359281D01*
X102580497Y-103083203D01*
X102473249Y-102823001D01*
X102317504Y-102588586D01*
X102119193Y-102388886D01*
X101885871Y-102231508D01*
X101626424Y-102122447D01*
X101350735Y-102065856D01*
X101069304Y-102063891D01*
X100792851Y-102116627D01*
X100531907Y-102222055D01*
X100296410Y-102376160D01*
X100095330Y-102573072D01*
X99936327Y-102805290D01*
X99825457Y-103063969D01*
X99766943Y-103339257D01*
X99763013Y-103620667D01*
X82356577Y-103620667D01*
X83335574Y-102641670D01*
X83401376Y-102564464D01*
X83485096Y-102405629D01*
X83521251Y-102229759D01*
X83506979Y-102050778D01*
X83443408Y-101882860D01*
X83335574Y-101739300D01*
X81621292Y-100025018D01*
X81621292Y-99949187D01*
X91873206Y-99949187D01*
X91892216Y-100150287D01*
X91949924Y-100343865D01*
X92044132Y-100522547D01*
X92171253Y-100679528D01*
X92326444Y-100808828D01*
X92503794Y-100905522D01*
X92696547Y-100965928D01*
X92897362Y-100987743D01*
X93098589Y-100970138D01*
X93292566Y-100913783D01*
X93471901Y-100820824D01*
X93629766Y-100694803D01*
X93640056Y-100684656D01*
X95359260Y-98965452D01*
X102460397Y-98965452D01*
X102553684Y-99224343D01*
X102695685Y-99460060D01*
X102880944Y-99663544D01*
X103102341Y-99826976D01*
X103351368Y-99944076D01*
X103477188Y-99982243D01*
X103694320Y-99859835D01*
X103694320Y-98748320D01*
X103948320Y-98748320D01*
X103948320Y-99859835D01*
X104165452Y-99982243D01*
X104424343Y-99888956D01*
X104660060Y-99746955D01*
X104863544Y-99561696D01*
X105026976Y-99340299D01*
X105144076Y-99091272D01*
X105182243Y-98965452D01*
X105059835Y-98748320D01*
X103948320Y-98748320D01*
X103694320Y-98748320D01*
X102582805Y-98748320D01*
X102460397Y-98965452D01*
X95359260Y-98965452D01*
X95697456Y-98627256D01*
X95758188Y-98553319D01*
X95819592Y-98480141D01*
X95822211Y-98475377D01*
X95825670Y-98471166D01*
X95870879Y-98386850D01*
X95916905Y-98303130D01*
X95918551Y-98297943D01*
X95921123Y-98293145D01*
X95926001Y-98277188D01*
X102460397Y-98277188D01*
X102582805Y-98494320D01*
X103694320Y-98494320D01*
X103694320Y-97382805D01*
X103948320Y-97382805D01*
X103948320Y-98494320D01*
X105059835Y-98494320D01*
X105182243Y-98277188D01*
X105088956Y-98018297D01*
X104946955Y-97782580D01*
X104761696Y-97579096D01*
X104540299Y-97415664D01*
X104291272Y-97298564D01*
X104165452Y-97260397D01*
X103948320Y-97382805D01*
X103694320Y-97382805D01*
X103477188Y-97260397D01*
X103218297Y-97353684D01*
X102982580Y-97495685D01*
X102779096Y-97680944D01*
X102615664Y-97902341D01*
X102498564Y-98151368D01*
X102460397Y-98277188D01*
X95926001Y-98277188D01*
X95949063Y-98201755D01*
X95977983Y-98110589D01*
X95978590Y-98105175D01*
X95980180Y-98099975D01*
X95989839Y-98004888D01*
X96000499Y-97909851D01*
X96000573Y-97899217D01*
X96000594Y-97899013D01*
X96000576Y-97898823D01*
X96000600Y-97895400D01*
X96000600Y-96617464D01*
X100301164Y-96617464D01*
X100350620Y-96886928D01*
X100451474Y-97141655D01*
X100599883Y-97371942D01*
X100790196Y-97569016D01*
X101015163Y-97725372D01*
X101266215Y-97835054D01*
X101533789Y-97893884D01*
X101807695Y-97899622D01*
X102077499Y-97852048D01*
X102332923Y-97752975D01*
X102564240Y-97606177D01*
X102762639Y-97417245D01*
X102920561Y-97193375D01*
X103031993Y-96943095D01*
X103092690Y-96675938D01*
X103097059Y-96363017D01*
X103043846Y-96094269D01*
X102939446Y-95840975D01*
X102787835Y-95612783D01*
X102594790Y-95418385D01*
X102367662Y-95265185D01*
X102115103Y-95159019D01*
X101846733Y-95103931D01*
X101572774Y-95102018D01*
X101303661Y-95153354D01*
X101049644Y-95255984D01*
X100820399Y-95405997D01*
X100624658Y-95597681D01*
X100469877Y-95823734D01*
X100361950Y-96075546D01*
X100304989Y-96343524D01*
X100301164Y-96617464D01*
X96000600Y-96617464D01*
X96000600Y-86490800D01*
X95980889Y-86289767D01*
X95922505Y-86096392D01*
X95827673Y-85918040D01*
X95700006Y-85761504D01*
X95544365Y-85632746D01*
X95366679Y-85536672D01*
X95173716Y-85476940D01*
X94972826Y-85455825D01*
X94771660Y-85474133D01*
X94577882Y-85531165D01*
X94398872Y-85624749D01*
X94241448Y-85751321D01*
X94111608Y-85906059D01*
X94014295Y-86083070D01*
X93953217Y-86275611D01*
X93930701Y-86476349D01*
X93930600Y-86490800D01*
X93930600Y-97466688D01*
X92176344Y-99220944D01*
X92048130Y-99377034D01*
X91952677Y-99555055D01*
X91893620Y-99748225D01*
X91873206Y-99949187D01*
X81621292Y-99949187D01*
X81621292Y-97161292D01*
X81611964Y-97066151D01*
X81603630Y-96970903D01*
X81602112Y-96965680D01*
X81601581Y-96960259D01*
X81573938Y-96868701D01*
X81547275Y-96776927D01*
X81544770Y-96772095D01*
X81543197Y-96766884D01*
X81498338Y-96682517D01*
X81454317Y-96597591D01*
X81450918Y-96593333D01*
X81448365Y-96588532D01*
X81387968Y-96514478D01*
X81328295Y-96439727D01*
X81320825Y-96432152D01*
X81320698Y-96431996D01*
X81320554Y-96431877D01*
X81318148Y-96429437D01*
X80406856Y-95518144D01*
X80332919Y-95457412D01*
X80259741Y-95396008D01*
X80254977Y-95393389D01*
X80250766Y-95389930D01*
X80166450Y-95344721D01*
X80082730Y-95298695D01*
X80077543Y-95297049D01*
X80072745Y-95294477D01*
X79981355Y-95266537D01*
X79890189Y-95237617D01*
X79884775Y-95237010D01*
X79879575Y-95235420D01*
X79784488Y-95225761D01*
X79689451Y-95215101D01*
X79678817Y-95215027D01*
X79678613Y-95215006D01*
X79678423Y-95215024D01*
X79675000Y-95215000D01*
X78125000Y-95215000D01*
X77923967Y-95234711D01*
X77833821Y-95261928D01*
X77375000Y-95261928D01*
X77273879Y-95269992D01*
X77102366Y-95323106D01*
X76952441Y-95421900D01*
X76835975Y-95558550D01*
X76762190Y-95722237D01*
X76736928Y-95900000D01*
X76736928Y-95975126D01*
X76697396Y-95958508D01*
X76488962Y-95915723D01*
X76276188Y-95914237D01*
X76067177Y-95954108D01*
X75869891Y-96033817D01*
X75691845Y-96150327D01*
X75539820Y-96299201D01*
X75419607Y-96474768D01*
X75335784Y-96670341D01*
X75291545Y-96878471D01*
X75288574Y-97091230D01*
X74910000Y-97091230D01*
X74910000Y-94091230D01*
X75288574Y-94091230D01*
X75326984Y-94300514D01*
X75405314Y-94498351D01*
X75520578Y-94677206D01*
X75668387Y-94830267D01*
X75843111Y-94951703D01*
X76038094Y-95036889D01*
X76245910Y-95082581D01*
X76458643Y-95087037D01*
X76668190Y-95050088D01*
X76866569Y-94973142D01*
X77046225Y-94859129D01*
X77200314Y-94712392D01*
X77322967Y-94538520D01*
X77409512Y-94344136D01*
X77433609Y-94238072D01*
X78875000Y-94238072D01*
X78976121Y-94230008D01*
X79147634Y-94176894D01*
X79297559Y-94078100D01*
X79414025Y-93941450D01*
X79487810Y-93777763D01*
X79513072Y-93600000D01*
X79513072Y-92900000D01*
X79505008Y-92798879D01*
X79451894Y-92627366D01*
X79353100Y-92477441D01*
X79216450Y-92360975D01*
X79052763Y-92287190D01*
X78875000Y-92261928D01*
X78513072Y-92261928D01*
X78513072Y-91350000D01*
X78505008Y-91248879D01*
X78451894Y-91077366D01*
X78353100Y-90927441D01*
X78216450Y-90810975D01*
X78052763Y-90737190D01*
X77875000Y-90711928D01*
X77075000Y-90711928D01*
X76973879Y-90719992D01*
X76802366Y-90773106D01*
X76652441Y-90871900D01*
X76535975Y-91008550D01*
X76462190Y-91172237D01*
X76436928Y-91350000D01*
X76436928Y-92350000D01*
X76444992Y-92451121D01*
X76498106Y-92622634D01*
X76596900Y-92772559D01*
X76733550Y-92889025D01*
X76738190Y-92891117D01*
X76736928Y-92900000D01*
X76736928Y-92975126D01*
X76697396Y-92958508D01*
X76488962Y-92915723D01*
X76276188Y-92914237D01*
X76067177Y-92954108D01*
X75869891Y-93033817D01*
X75691845Y-93150327D01*
X75539820Y-93299201D01*
X75419607Y-93474768D01*
X75335784Y-93670341D01*
X75291545Y-93878471D01*
X75288574Y-94091230D01*
X74910000Y-94091230D01*
X74910000Y-92988072D01*
X75675000Y-92988072D01*
X75776121Y-92980008D01*
X75947634Y-92926894D01*
X76097559Y-92828100D01*
X76214025Y-92691450D01*
X76287810Y-92527763D01*
X76313072Y-92350000D01*
X76313072Y-91350000D01*
X76305008Y-91248879D01*
X76251894Y-91077366D01*
X76153100Y-90927441D01*
X76016450Y-90810975D01*
X75852763Y-90737190D01*
X75675000Y-90711928D01*
X74910000Y-90711928D01*
X74910000Y-75946323D01*
X74931957Y-75988682D01*
G36*
X82927000Y-68623000D02*
X82947000Y-68623000D01*
X82947000Y-68877000D01*
X82927000Y-68877000D01*
X82927000Y-70601250D01*
X83085750Y-70760000D01*
X83362542Y-70760000D01*
X83485223Y-70735597D01*
X83600785Y-70687730D01*
X83704789Y-70618237D01*
X83793237Y-70529789D01*
X83862730Y-70425785D01*
X83910597Y-70310223D01*
X83928349Y-70220976D01*
X84066884Y-70263860D01*
X84267774Y-70284975D01*
X84468940Y-70266667D01*
X84662718Y-70209635D01*
X84841728Y-70116051D01*
X84999152Y-69989479D01*
X85128992Y-69834741D01*
X85226305Y-69657730D01*
X85287383Y-69465189D01*
X85309899Y-69264451D01*
X85310000Y-69250000D01*
X85310000Y-68953712D01*
X85576755Y-68686956D01*
X85677615Y-68855131D01*
X85866586Y-69063519D01*
X86019899Y-69177162D01*
X84918143Y-70278917D01*
X84857411Y-70352854D01*
X84852068Y-70359221D01*
X84618144Y-70593144D01*
X84489930Y-70749234D01*
X84394477Y-70927255D01*
X84335420Y-71120425D01*
X84315006Y-71321387D01*
X84334016Y-71522487D01*
X84391724Y-71716065D01*
X84485932Y-71894747D01*
X84613053Y-72051728D01*
X84768244Y-72181028D01*
X84945594Y-72277722D01*
X85138347Y-72338128D01*
X85339162Y-72359943D01*
X85540389Y-72342338D01*
X85734366Y-72285983D01*
X85913701Y-72193024D01*
X86071566Y-72067003D01*
X86081856Y-72056856D01*
X86380765Y-71757946D01*
X86382661Y-71779617D01*
X86384179Y-71784840D01*
X86384710Y-71790261D01*
X86412349Y-71881806D01*
X86439016Y-71973594D01*
X86441521Y-71978427D01*
X86443094Y-71983636D01*
X86487964Y-72068024D01*
X86531975Y-72152929D01*
X86535372Y-72157184D01*
X86537926Y-72161988D01*
X86598326Y-72236046D01*
X86657996Y-72310794D01*
X86665471Y-72318374D01*
X86665593Y-72318524D01*
X86665732Y-72318639D01*
X86668143Y-72321084D01*
X87532058Y-73184999D01*
X85194229Y-73184999D01*
X85099088Y-73194327D01*
X85003840Y-73202661D01*
X84998617Y-73204179D01*
X84993196Y-73204710D01*
X84901638Y-73232353D01*
X84809864Y-73259016D01*
X84805032Y-73261521D01*
X84799821Y-73263094D01*
X84715454Y-73307953D01*
X84630528Y-73351974D01*
X84626270Y-73355373D01*
X84621469Y-73357926D01*
X84547415Y-73418323D01*
X84472664Y-73477996D01*
X84465089Y-73485466D01*
X84464933Y-73485593D01*
X84464814Y-73485737D01*
X84462374Y-73488143D01*
X83935000Y-74015516D01*
X83935000Y-73062458D01*
X83910597Y-72939777D01*
X83862730Y-72824215D01*
X83793237Y-72720211D01*
X83704789Y-72631763D01*
X83600785Y-72562270D01*
X83485223Y-72514403D01*
X83362542Y-72490000D01*
X83085750Y-72490000D01*
X82927000Y-72648750D01*
X82927000Y-74373000D01*
X82947000Y-74373000D01*
X82947000Y-74627000D01*
X82927000Y-74627000D01*
X82927000Y-74647000D01*
X82673000Y-74647000D01*
X82673000Y-74627000D01*
X81823750Y-74627000D01*
X81665000Y-74785750D01*
X81665000Y-75937542D01*
X81689403Y-76060223D01*
X81737270Y-76175785D01*
X81806763Y-76279789D01*
X81895211Y-76368237D01*
X81999215Y-76437730D01*
X82114777Y-76485597D01*
X82133460Y-76489313D01*
X82073272Y-76538053D01*
X81943972Y-76693244D01*
X81847278Y-76870594D01*
X81786872Y-77063347D01*
X81765057Y-77264162D01*
X81782662Y-77465389D01*
X81839017Y-77659366D01*
X81931976Y-77838701D01*
X82057997Y-77996566D01*
X82068144Y-78006856D01*
X82342402Y-78281114D01*
X82198830Y-78490796D01*
X82085016Y-78756342D01*
X82024949Y-79038938D01*
X82020915Y-79327820D01*
X82073068Y-79611983D01*
X82179423Y-79880604D01*
X82335928Y-80123451D01*
X82461051Y-80253020D01*
X82461051Y-83321288D01*
X79535532Y-86246807D01*
X79401107Y-86228498D01*
X78629605Y-87000000D01*
X78643748Y-87014143D01*
X78464143Y-87193748D01*
X78450000Y-87179605D01*
X78435858Y-87193748D01*
X78256253Y-87014143D01*
X78270395Y-87000000D01*
X77593284Y-86322889D01*
X77485000Y-86431172D01*
X77485000Y-86428712D01*
X77770427Y-86143284D01*
X77772889Y-86143284D01*
X78450000Y-86820395D01*
X79221502Y-86048893D01*
X79193202Y-85841111D01*
X78998984Y-85748205D01*
X78789833Y-85702588D01*
X78575801Y-85698651D01*
X78365114Y-85736545D01*
X78165868Y-85814815D01*
X77985721Y-85930451D01*
X77772889Y-86143284D01*
X77770427Y-86143284D01*
X79197603Y-84716108D01*
X79258289Y-84642228D01*
X79319740Y-84568993D01*
X79322361Y-84564225D01*
X79325817Y-84560018D01*
X79370997Y-84475757D01*
X79417053Y-84391982D01*
X79418699Y-84386793D01*
X79421270Y-84381998D01*
X79449201Y-84290639D01*
X79474565Y-84210683D01*
X79547792Y-84232896D01*
X79776949Y-84111513D01*
X79776949Y-83102659D01*
X79889808Y-82989800D01*
X79823059Y-82923051D01*
X80030949Y-82923051D01*
X80030949Y-84111513D01*
X80260106Y-84232896D01*
X80533577Y-84135805D01*
X80782852Y-83987228D01*
X80998351Y-83792874D01*
X81171793Y-83560213D01*
X81296512Y-83298186D01*
X81340794Y-83152208D01*
X81219411Y-82923051D01*
X80030949Y-82923051D01*
X79823059Y-82923051D01*
X79710200Y-82810192D01*
X79597341Y-82923051D01*
X79500748Y-82923051D01*
X79500748Y-82669051D01*
X79597341Y-82669051D01*
X79710200Y-82781910D01*
X79889808Y-82602302D01*
X79776949Y-82489443D01*
X79776949Y-81480589D01*
X80030949Y-81480589D01*
X80030949Y-82669051D01*
X81219411Y-82669051D01*
X81340794Y-82439894D01*
X81243703Y-82166423D01*
X81095126Y-81917148D01*
X80900772Y-81701649D01*
X80668111Y-81528207D01*
X80406084Y-81403488D01*
X80260106Y-81359206D01*
X80030949Y-81480589D01*
X79776949Y-81480589D01*
X79547792Y-81359206D01*
X79500748Y-81375908D01*
X79500748Y-81070862D01*
X79894277Y-80677333D01*
X80017518Y-80679914D01*
X80302039Y-80629746D01*
X80571396Y-80525269D01*
X80815330Y-80370463D01*
X81024550Y-80171226D01*
X81191087Y-79935145D01*
X81308597Y-79671213D01*
X81372604Y-79389483D01*
X81377212Y-79059494D01*
X81321096Y-78776087D01*
X81211001Y-78508977D01*
X81051121Y-78268338D01*
X80847546Y-78063337D01*
X80608029Y-77901781D01*
X80341694Y-77789824D01*
X80058685Y-77731730D01*
X79769783Y-77729713D01*
X79485991Y-77783850D01*
X79457631Y-77795308D01*
X79531855Y-77721084D01*
X79592541Y-77647204D01*
X79653992Y-77573969D01*
X79656613Y-77569201D01*
X79660069Y-77564994D01*
X79705249Y-77480733D01*
X79751305Y-77396958D01*
X79752951Y-77391769D01*
X79755522Y-77386974D01*
X79783453Y-77295615D01*
X79812383Y-77204417D01*
X79812990Y-77199003D01*
X79814580Y-77193803D01*
X79824234Y-77098761D01*
X79834899Y-77003679D01*
X79834973Y-76993034D01*
X79834993Y-76992841D01*
X79834976Y-76992661D01*
X79835000Y-76989228D01*
X79835000Y-76221173D01*
X79839025Y-76216450D01*
X79912810Y-76052763D01*
X79938072Y-75875000D01*
X79938072Y-73125000D01*
X79933085Y-73062458D01*
X81665000Y-73062458D01*
X81665000Y-74214250D01*
X81823750Y-74373000D01*
X82673000Y-74373000D01*
X82673000Y-72648750D01*
X82514250Y-72490000D01*
X82237458Y-72490000D01*
X82114777Y-72514403D01*
X81999215Y-72562270D01*
X81895211Y-72631763D01*
X81806763Y-72720211D01*
X81737270Y-72824215D01*
X81689403Y-72939777D01*
X81665000Y-73062458D01*
X79933085Y-73062458D01*
X79930008Y-73023879D01*
X79876894Y-72852366D01*
X79778100Y-72702441D01*
X79641450Y-72585975D01*
X79477763Y-72512190D01*
X79392076Y-72500013D01*
X81671561Y-70220527D01*
X81689403Y-70310223D01*
X81737270Y-70425785D01*
X81806763Y-70529789D01*
X81895211Y-70618237D01*
X81999215Y-70687730D01*
X82114777Y-70735597D01*
X82237458Y-70760000D01*
X82514250Y-70760000D01*
X82673000Y-70601250D01*
X82673000Y-68877000D01*
X82653000Y-68877000D01*
X82653000Y-68623000D01*
X82673000Y-68623000D01*
X82673000Y-68603000D01*
X82927000Y-68603000D01*
X82927000Y-68623000D01*
X82927000Y-68623000D01*
G37*
X82927000Y-68623000D02*
X82947000Y-68623000D01*
X82947000Y-68877000D01*
X82927000Y-68877000D01*
X82927000Y-70601250D01*
X83085750Y-70760000D01*
X83362542Y-70760000D01*
X83485223Y-70735597D01*
X83600785Y-70687730D01*
X83704789Y-70618237D01*
X83793237Y-70529789D01*
X83862730Y-70425785D01*
X83910597Y-70310223D01*
X83928349Y-70220976D01*
X84066884Y-70263860D01*
X84267774Y-70284975D01*
X84468940Y-70266667D01*
X84662718Y-70209635D01*
X84841728Y-70116051D01*
X84999152Y-69989479D01*
X85128992Y-69834741D01*
X85226305Y-69657730D01*
X85287383Y-69465189D01*
X85309899Y-69264451D01*
X85310000Y-69250000D01*
X85310000Y-68953712D01*
X85576755Y-68686956D01*
X85677615Y-68855131D01*
X85866586Y-69063519D01*
X86019899Y-69177162D01*
X84918143Y-70278917D01*
X84857411Y-70352854D01*
X84852068Y-70359221D01*
X84618144Y-70593144D01*
X84489930Y-70749234D01*
X84394477Y-70927255D01*
X84335420Y-71120425D01*
X84315006Y-71321387D01*
X84334016Y-71522487D01*
X84391724Y-71716065D01*
X84485932Y-71894747D01*
X84613053Y-72051728D01*
X84768244Y-72181028D01*
X84945594Y-72277722D01*
X85138347Y-72338128D01*
X85339162Y-72359943D01*
X85540389Y-72342338D01*
X85734366Y-72285983D01*
X85913701Y-72193024D01*
X86071566Y-72067003D01*
X86081856Y-72056856D01*
X86380765Y-71757946D01*
X86382661Y-71779617D01*
X86384179Y-71784840D01*
X86384710Y-71790261D01*
X86412349Y-71881806D01*
X86439016Y-71973594D01*
X86441521Y-71978427D01*
X86443094Y-71983636D01*
X86487964Y-72068024D01*
X86531975Y-72152929D01*
X86535372Y-72157184D01*
X86537926Y-72161988D01*
X86598326Y-72236046D01*
X86657996Y-72310794D01*
X86665471Y-72318374D01*
X86665593Y-72318524D01*
X86665732Y-72318639D01*
X86668143Y-72321084D01*
X87532058Y-73184999D01*
X85194229Y-73184999D01*
X85099088Y-73194327D01*
X85003840Y-73202661D01*
X84998617Y-73204179D01*
X84993196Y-73204710D01*
X84901638Y-73232353D01*
X84809864Y-73259016D01*
X84805032Y-73261521D01*
X84799821Y-73263094D01*
X84715454Y-73307953D01*
X84630528Y-73351974D01*
X84626270Y-73355373D01*
X84621469Y-73357926D01*
X84547415Y-73418323D01*
X84472664Y-73477996D01*
X84465089Y-73485466D01*
X84464933Y-73485593D01*
X84464814Y-73485737D01*
X84462374Y-73488143D01*
X83935000Y-74015516D01*
X83935000Y-73062458D01*
X83910597Y-72939777D01*
X83862730Y-72824215D01*
X83793237Y-72720211D01*
X83704789Y-72631763D01*
X83600785Y-72562270D01*
X83485223Y-72514403D01*
X83362542Y-72490000D01*
X83085750Y-72490000D01*
X82927000Y-72648750D01*
X82927000Y-74373000D01*
X82947000Y-74373000D01*
X82947000Y-74627000D01*
X82927000Y-74627000D01*
X82927000Y-74647000D01*
X82673000Y-74647000D01*
X82673000Y-74627000D01*
X81823750Y-74627000D01*
X81665000Y-74785750D01*
X81665000Y-75937542D01*
X81689403Y-76060223D01*
X81737270Y-76175785D01*
X81806763Y-76279789D01*
X81895211Y-76368237D01*
X81999215Y-76437730D01*
X82114777Y-76485597D01*
X82133460Y-76489313D01*
X82073272Y-76538053D01*
X81943972Y-76693244D01*
X81847278Y-76870594D01*
X81786872Y-77063347D01*
X81765057Y-77264162D01*
X81782662Y-77465389D01*
X81839017Y-77659366D01*
X81931976Y-77838701D01*
X82057997Y-77996566D01*
X82068144Y-78006856D01*
X82342402Y-78281114D01*
X82198830Y-78490796D01*
X82085016Y-78756342D01*
X82024949Y-79038938D01*
X82020915Y-79327820D01*
X82073068Y-79611983D01*
X82179423Y-79880604D01*
X82335928Y-80123451D01*
X82461051Y-80253020D01*
X82461051Y-83321288D01*
X79535532Y-86246807D01*
X79401107Y-86228498D01*
X78629605Y-87000000D01*
X78643748Y-87014143D01*
X78464143Y-87193748D01*
X78450000Y-87179605D01*
X78435858Y-87193748D01*
X78256253Y-87014143D01*
X78270395Y-87000000D01*
X77593284Y-86322889D01*
X77485000Y-86431172D01*
X77485000Y-86428712D01*
X77770427Y-86143284D01*
X77772889Y-86143284D01*
X78450000Y-86820395D01*
X79221502Y-86048893D01*
X79193202Y-85841111D01*
X78998984Y-85748205D01*
X78789833Y-85702588D01*
X78575801Y-85698651D01*
X78365114Y-85736545D01*
X78165868Y-85814815D01*
X77985721Y-85930451D01*
X77772889Y-86143284D01*
X77770427Y-86143284D01*
X79197603Y-84716108D01*
X79258289Y-84642228D01*
X79319740Y-84568993D01*
X79322361Y-84564225D01*
X79325817Y-84560018D01*
X79370997Y-84475757D01*
X79417053Y-84391982D01*
X79418699Y-84386793D01*
X79421270Y-84381998D01*
X79449201Y-84290639D01*
X79474565Y-84210683D01*
X79547792Y-84232896D01*
X79776949Y-84111513D01*
X79776949Y-83102659D01*
X79889808Y-82989800D01*
X79823059Y-82923051D01*
X80030949Y-82923051D01*
X80030949Y-84111513D01*
X80260106Y-84232896D01*
X80533577Y-84135805D01*
X80782852Y-83987228D01*
X80998351Y-83792874D01*
X81171793Y-83560213D01*
X81296512Y-83298186D01*
X81340794Y-83152208D01*
X81219411Y-82923051D01*
X80030949Y-82923051D01*
X79823059Y-82923051D01*
X79710200Y-82810192D01*
X79597341Y-82923051D01*
X79500748Y-82923051D01*
X79500748Y-82669051D01*
X79597341Y-82669051D01*
X79710200Y-82781910D01*
X79889808Y-82602302D01*
X79776949Y-82489443D01*
X79776949Y-81480589D01*
X80030949Y-81480589D01*
X80030949Y-82669051D01*
X81219411Y-82669051D01*
X81340794Y-82439894D01*
X81243703Y-82166423D01*
X81095126Y-81917148D01*
X80900772Y-81701649D01*
X80668111Y-81528207D01*
X80406084Y-81403488D01*
X80260106Y-81359206D01*
X80030949Y-81480589D01*
X79776949Y-81480589D01*
X79547792Y-81359206D01*
X79500748Y-81375908D01*
X79500748Y-81070862D01*
X79894277Y-80677333D01*
X80017518Y-80679914D01*
X80302039Y-80629746D01*
X80571396Y-80525269D01*
X80815330Y-80370463D01*
X81024550Y-80171226D01*
X81191087Y-79935145D01*
X81308597Y-79671213D01*
X81372604Y-79389483D01*
X81377212Y-79059494D01*
X81321096Y-78776087D01*
X81211001Y-78508977D01*
X81051121Y-78268338D01*
X80847546Y-78063337D01*
X80608029Y-77901781D01*
X80341694Y-77789824D01*
X80058685Y-77731730D01*
X79769783Y-77729713D01*
X79485991Y-77783850D01*
X79457631Y-77795308D01*
X79531855Y-77721084D01*
X79592541Y-77647204D01*
X79653992Y-77573969D01*
X79656613Y-77569201D01*
X79660069Y-77564994D01*
X79705249Y-77480733D01*
X79751305Y-77396958D01*
X79752951Y-77391769D01*
X79755522Y-77386974D01*
X79783453Y-77295615D01*
X79812383Y-77204417D01*
X79812990Y-77199003D01*
X79814580Y-77193803D01*
X79824234Y-77098761D01*
X79834899Y-77003679D01*
X79834973Y-76993034D01*
X79834993Y-76992841D01*
X79834976Y-76992661D01*
X79835000Y-76989228D01*
X79835000Y-76221173D01*
X79839025Y-76216450D01*
X79912810Y-76052763D01*
X79938072Y-75875000D01*
X79938072Y-73125000D01*
X79933085Y-73062458D01*
X81665000Y-73062458D01*
X81665000Y-74214250D01*
X81823750Y-74373000D01*
X82673000Y-74373000D01*
X82673000Y-72648750D01*
X82514250Y-72490000D01*
X82237458Y-72490000D01*
X82114777Y-72514403D01*
X81999215Y-72562270D01*
X81895211Y-72631763D01*
X81806763Y-72720211D01*
X81737270Y-72824215D01*
X81689403Y-72939777D01*
X81665000Y-73062458D01*
X79933085Y-73062458D01*
X79930008Y-73023879D01*
X79876894Y-72852366D01*
X79778100Y-72702441D01*
X79641450Y-72585975D01*
X79477763Y-72512190D01*
X79392076Y-72500013D01*
X81671561Y-70220527D01*
X81689403Y-70310223D01*
X81737270Y-70425785D01*
X81806763Y-70529789D01*
X81895211Y-70618237D01*
X81999215Y-70687730D01*
X82114777Y-70735597D01*
X82237458Y-70760000D01*
X82514250Y-70760000D01*
X82673000Y-70601250D01*
X82673000Y-68877000D01*
X82653000Y-68877000D01*
X82653000Y-68623000D01*
X82673000Y-68623000D01*
X82673000Y-68603000D01*
X82927000Y-68603000D01*
X82927000Y-68623000D01*
G36*
X100316746Y-65347415D02*
X101631437Y-65744343D01*
X102843994Y-66389070D01*
X103908226Y-67257038D01*
X104783600Y-68315183D01*
X105436776Y-69523205D01*
X105842874Y-70835096D01*
X105989941Y-72234342D01*
X105990000Y-72251335D01*
X105990000Y-76289142D01*
X105957590Y-76262139D01*
X105711700Y-76128075D01*
X105444452Y-76044325D01*
X105166027Y-76014079D01*
X104887030Y-76038487D01*
X104618088Y-76116622D01*
X104369443Y-76245508D01*
X104150569Y-76420233D01*
X104136302Y-76434302D01*
X103710855Y-76859749D01*
X103488116Y-76637010D01*
X103410910Y-76571208D01*
X103252075Y-76487488D01*
X103170931Y-76470807D01*
X103250785Y-76437730D01*
X103354789Y-76368237D01*
X103443237Y-76279789D01*
X103512730Y-76175785D01*
X103560597Y-76060223D01*
X103585000Y-75937542D01*
X103585000Y-74785750D01*
X103426250Y-74627000D01*
X102577000Y-74627000D01*
X102577000Y-76351250D01*
X102735750Y-76510000D01*
X102779958Y-76510000D01*
X102729306Y-76529176D01*
X102585746Y-76637010D01*
X102295097Y-76927659D01*
X102255868Y-76853253D01*
X102128748Y-76696271D01*
X101973556Y-76566971D01*
X101858499Y-76504240D01*
X101887458Y-76510000D01*
X102164250Y-76510000D01*
X102323000Y-76351250D01*
X102323000Y-74627000D01*
X101473750Y-74627000D01*
X101315000Y-74785750D01*
X101315000Y-75937542D01*
X101339403Y-76060223D01*
X101387270Y-76175785D01*
X101456763Y-76279789D01*
X101545211Y-76368237D01*
X101611116Y-76412273D01*
X101603454Y-76409872D01*
X101402638Y-76388056D01*
X101201411Y-76405662D01*
X101007435Y-76462017D01*
X100828099Y-76554975D01*
X100670235Y-76680997D01*
X100659945Y-76691144D01*
X100558597Y-76792492D01*
X100569879Y-76771450D01*
X100615905Y-76687730D01*
X100617551Y-76682543D01*
X100620123Y-76677745D01*
X100648063Y-76586355D01*
X100676983Y-76495189D01*
X100677590Y-76489775D01*
X100679180Y-76484575D01*
X100688839Y-76389488D01*
X100699499Y-76294451D01*
X100699573Y-76283817D01*
X100699594Y-76283613D01*
X100699576Y-76283423D01*
X100699600Y-76280000D01*
X100699600Y-73282800D01*
X100679889Y-73081767D01*
X100674060Y-73062458D01*
X101315000Y-73062458D01*
X101315000Y-74214250D01*
X101473750Y-74373000D01*
X102323000Y-74373000D01*
X102323000Y-72648750D01*
X102577000Y-72648750D01*
X102577000Y-74373000D01*
X103426250Y-74373000D01*
X103585000Y-74214250D01*
X103585000Y-73062458D01*
X103560597Y-72939777D01*
X103512730Y-72824215D01*
X103443237Y-72720211D01*
X103354789Y-72631763D01*
X103250785Y-72562270D01*
X103135223Y-72514403D01*
X103012542Y-72490000D01*
X102735750Y-72490000D01*
X102577000Y-72648750D01*
X102323000Y-72648750D01*
X102164250Y-72490000D01*
X101887458Y-72490000D01*
X101764777Y-72514403D01*
X101649215Y-72562270D01*
X101545211Y-72631763D01*
X101456763Y-72720211D01*
X101387270Y-72824215D01*
X101339403Y-72939777D01*
X101315000Y-73062458D01*
X100674060Y-73062458D01*
X100621505Y-72888392D01*
X100526673Y-72710040D01*
X100399006Y-72553504D01*
X100243365Y-72424746D01*
X100065679Y-72328672D01*
X99872716Y-72268940D01*
X99671826Y-72247825D01*
X99485000Y-72264828D01*
X99485000Y-70471173D01*
X99489025Y-70466450D01*
X99562810Y-70302763D01*
X99588072Y-70125000D01*
X99588072Y-69035750D01*
X101315000Y-69035750D01*
X101315000Y-70187542D01*
X101339403Y-70310223D01*
X101387270Y-70425785D01*
X101456763Y-70529789D01*
X101545211Y-70618237D01*
X101649215Y-70687730D01*
X101764777Y-70735597D01*
X101887458Y-70760000D01*
X102164250Y-70760000D01*
X102323000Y-70601250D01*
X102323000Y-68877000D01*
X102577000Y-68877000D01*
X102577000Y-70601250D01*
X102735750Y-70760000D01*
X103012542Y-70760000D01*
X103135223Y-70735597D01*
X103250785Y-70687730D01*
X103354789Y-70618237D01*
X103443237Y-70529789D01*
X103512730Y-70425785D01*
X103560597Y-70310223D01*
X103585000Y-70187542D01*
X103585000Y-69035750D01*
X103426250Y-68877000D01*
X102577000Y-68877000D01*
X102323000Y-68877000D01*
X101473750Y-68877000D01*
X101315000Y-69035750D01*
X99588072Y-69035750D01*
X99588072Y-67375000D01*
X99583085Y-67312458D01*
X101315000Y-67312458D01*
X101315000Y-68464250D01*
X101473750Y-68623000D01*
X102323000Y-68623000D01*
X102323000Y-66898750D01*
X102577000Y-66898750D01*
X102577000Y-68623000D01*
X103426250Y-68623000D01*
X103585000Y-68464250D01*
X103585000Y-67312458D01*
X103560597Y-67189777D01*
X103512730Y-67074215D01*
X103443237Y-66970211D01*
X103354789Y-66881763D01*
X103250785Y-66812270D01*
X103135223Y-66764403D01*
X103012542Y-66740000D01*
X102735750Y-66740000D01*
X102577000Y-66898750D01*
X102323000Y-66898750D01*
X102164250Y-66740000D01*
X101887458Y-66740000D01*
X101764777Y-66764403D01*
X101649215Y-66812270D01*
X101545211Y-66881763D01*
X101456763Y-66970211D01*
X101387270Y-67074215D01*
X101339403Y-67189777D01*
X101315000Y-67312458D01*
X99583085Y-67312458D01*
X99580008Y-67273879D01*
X99526894Y-67102366D01*
X99428100Y-66952441D01*
X99291450Y-66835975D01*
X99127763Y-66762190D01*
X98950000Y-66736928D01*
X97950000Y-66736928D01*
X97848879Y-66744992D01*
X97677366Y-66798106D01*
X97527441Y-66896900D01*
X97410975Y-67033550D01*
X97337190Y-67197237D01*
X97311928Y-67375000D01*
X97311928Y-69109281D01*
X97180316Y-69068540D01*
X96979426Y-69047425D01*
X96778260Y-69065733D01*
X96584482Y-69122765D01*
X96405472Y-69216349D01*
X96248048Y-69342921D01*
X96118208Y-69497659D01*
X96020895Y-69674670D01*
X95959817Y-69867211D01*
X95937301Y-70067949D01*
X95937200Y-70082400D01*
X95937200Y-72139800D01*
X95956911Y-72340833D01*
X96015295Y-72534208D01*
X96110127Y-72712560D01*
X96237794Y-72869096D01*
X96383941Y-72990000D01*
X91560654Y-72990000D01*
X91468025Y-72811299D01*
X91342003Y-72653435D01*
X91331856Y-72643145D01*
X90405000Y-71716288D01*
X90405000Y-68995287D01*
X90554038Y-68817671D01*
X90640228Y-68660891D01*
X90714758Y-68801060D01*
X90891766Y-69018093D01*
X91107558Y-69196612D01*
X91353915Y-69329817D01*
X91621453Y-69412633D01*
X91899982Y-69441908D01*
X92178892Y-69416525D01*
X92447560Y-69337452D01*
X92695753Y-69207700D01*
X92914017Y-69032211D01*
X93094038Y-68817671D01*
X93180228Y-68660891D01*
X93254758Y-68801060D01*
X93431766Y-69018093D01*
X93647558Y-69196612D01*
X93893915Y-69329817D01*
X94161453Y-69412633D01*
X94439982Y-69441908D01*
X94718892Y-69416525D01*
X94987560Y-69337452D01*
X95235753Y-69207700D01*
X95454017Y-69032211D01*
X95634038Y-68817671D01*
X95768959Y-68572250D01*
X95853642Y-68305296D01*
X95884860Y-68026979D01*
X95885000Y-68006943D01*
X95885000Y-67993057D01*
X95857671Y-67714331D01*
X95776724Y-67446221D01*
X95645242Y-67198940D01*
X95468234Y-66981907D01*
X95252442Y-66803388D01*
X95006085Y-66670183D01*
X94738547Y-66587367D01*
X94473188Y-66559476D01*
X94381857Y-66468145D01*
X94381851Y-66468140D01*
X93123712Y-65210000D01*
X98915280Y-65210000D01*
X100316746Y-65347415D01*
X100316746Y-65347415D01*
G37*
X100316746Y-65347415D02*
X101631437Y-65744343D01*
X102843994Y-66389070D01*
X103908226Y-67257038D01*
X104783600Y-68315183D01*
X105436776Y-69523205D01*
X105842874Y-70835096D01*
X105989941Y-72234342D01*
X105990000Y-72251335D01*
X105990000Y-76289142D01*
X105957590Y-76262139D01*
X105711700Y-76128075D01*
X105444452Y-76044325D01*
X105166027Y-76014079D01*
X104887030Y-76038487D01*
X104618088Y-76116622D01*
X104369443Y-76245508D01*
X104150569Y-76420233D01*
X104136302Y-76434302D01*
X103710855Y-76859749D01*
X103488116Y-76637010D01*
X103410910Y-76571208D01*
X103252075Y-76487488D01*
X103170931Y-76470807D01*
X103250785Y-76437730D01*
X103354789Y-76368237D01*
X103443237Y-76279789D01*
X103512730Y-76175785D01*
X103560597Y-76060223D01*
X103585000Y-75937542D01*
X103585000Y-74785750D01*
X103426250Y-74627000D01*
X102577000Y-74627000D01*
X102577000Y-76351250D01*
X102735750Y-76510000D01*
X102779958Y-76510000D01*
X102729306Y-76529176D01*
X102585746Y-76637010D01*
X102295097Y-76927659D01*
X102255868Y-76853253D01*
X102128748Y-76696271D01*
X101973556Y-76566971D01*
X101858499Y-76504240D01*
X101887458Y-76510000D01*
X102164250Y-76510000D01*
X102323000Y-76351250D01*
X102323000Y-74627000D01*
X101473750Y-74627000D01*
X101315000Y-74785750D01*
X101315000Y-75937542D01*
X101339403Y-76060223D01*
X101387270Y-76175785D01*
X101456763Y-76279789D01*
X101545211Y-76368237D01*
X101611116Y-76412273D01*
X101603454Y-76409872D01*
X101402638Y-76388056D01*
X101201411Y-76405662D01*
X101007435Y-76462017D01*
X100828099Y-76554975D01*
X100670235Y-76680997D01*
X100659945Y-76691144D01*
X100558597Y-76792492D01*
X100569879Y-76771450D01*
X100615905Y-76687730D01*
X100617551Y-76682543D01*
X100620123Y-76677745D01*
X100648063Y-76586355D01*
X100676983Y-76495189D01*
X100677590Y-76489775D01*
X100679180Y-76484575D01*
X100688839Y-76389488D01*
X100699499Y-76294451D01*
X100699573Y-76283817D01*
X100699594Y-76283613D01*
X100699576Y-76283423D01*
X100699600Y-76280000D01*
X100699600Y-73282800D01*
X100679889Y-73081767D01*
X100674060Y-73062458D01*
X101315000Y-73062458D01*
X101315000Y-74214250D01*
X101473750Y-74373000D01*
X102323000Y-74373000D01*
X102323000Y-72648750D01*
X102577000Y-72648750D01*
X102577000Y-74373000D01*
X103426250Y-74373000D01*
X103585000Y-74214250D01*
X103585000Y-73062458D01*
X103560597Y-72939777D01*
X103512730Y-72824215D01*
X103443237Y-72720211D01*
X103354789Y-72631763D01*
X103250785Y-72562270D01*
X103135223Y-72514403D01*
X103012542Y-72490000D01*
X102735750Y-72490000D01*
X102577000Y-72648750D01*
X102323000Y-72648750D01*
X102164250Y-72490000D01*
X101887458Y-72490000D01*
X101764777Y-72514403D01*
X101649215Y-72562270D01*
X101545211Y-72631763D01*
X101456763Y-72720211D01*
X101387270Y-72824215D01*
X101339403Y-72939777D01*
X101315000Y-73062458D01*
X100674060Y-73062458D01*
X100621505Y-72888392D01*
X100526673Y-72710040D01*
X100399006Y-72553504D01*
X100243365Y-72424746D01*
X100065679Y-72328672D01*
X99872716Y-72268940D01*
X99671826Y-72247825D01*
X99485000Y-72264828D01*
X99485000Y-70471173D01*
X99489025Y-70466450D01*
X99562810Y-70302763D01*
X99588072Y-70125000D01*
X99588072Y-69035750D01*
X101315000Y-69035750D01*
X101315000Y-70187542D01*
X101339403Y-70310223D01*
X101387270Y-70425785D01*
X101456763Y-70529789D01*
X101545211Y-70618237D01*
X101649215Y-70687730D01*
X101764777Y-70735597D01*
X101887458Y-70760000D01*
X102164250Y-70760000D01*
X102323000Y-70601250D01*
X102323000Y-68877000D01*
X102577000Y-68877000D01*
X102577000Y-70601250D01*
X102735750Y-70760000D01*
X103012542Y-70760000D01*
X103135223Y-70735597D01*
X103250785Y-70687730D01*
X103354789Y-70618237D01*
X103443237Y-70529789D01*
X103512730Y-70425785D01*
X103560597Y-70310223D01*
X103585000Y-70187542D01*
X103585000Y-69035750D01*
X103426250Y-68877000D01*
X102577000Y-68877000D01*
X102323000Y-68877000D01*
X101473750Y-68877000D01*
X101315000Y-69035750D01*
X99588072Y-69035750D01*
X99588072Y-67375000D01*
X99583085Y-67312458D01*
X101315000Y-67312458D01*
X101315000Y-68464250D01*
X101473750Y-68623000D01*
X102323000Y-68623000D01*
X102323000Y-66898750D01*
X102577000Y-66898750D01*
X102577000Y-68623000D01*
X103426250Y-68623000D01*
X103585000Y-68464250D01*
X103585000Y-67312458D01*
X103560597Y-67189777D01*
X103512730Y-67074215D01*
X103443237Y-66970211D01*
X103354789Y-66881763D01*
X103250785Y-66812270D01*
X103135223Y-66764403D01*
X103012542Y-66740000D01*
X102735750Y-66740000D01*
X102577000Y-66898750D01*
X102323000Y-66898750D01*
X102164250Y-66740000D01*
X101887458Y-66740000D01*
X101764777Y-66764403D01*
X101649215Y-66812270D01*
X101545211Y-66881763D01*
X101456763Y-66970211D01*
X101387270Y-67074215D01*
X101339403Y-67189777D01*
X101315000Y-67312458D01*
X99583085Y-67312458D01*
X99580008Y-67273879D01*
X99526894Y-67102366D01*
X99428100Y-66952441D01*
X99291450Y-66835975D01*
X99127763Y-66762190D01*
X98950000Y-66736928D01*
X97950000Y-66736928D01*
X97848879Y-66744992D01*
X97677366Y-66798106D01*
X97527441Y-66896900D01*
X97410975Y-67033550D01*
X97337190Y-67197237D01*
X97311928Y-67375000D01*
X97311928Y-69109281D01*
X97180316Y-69068540D01*
X96979426Y-69047425D01*
X96778260Y-69065733D01*
X96584482Y-69122765D01*
X96405472Y-69216349D01*
X96248048Y-69342921D01*
X96118208Y-69497659D01*
X96020895Y-69674670D01*
X95959817Y-69867211D01*
X95937301Y-70067949D01*
X95937200Y-70082400D01*
X95937200Y-72139800D01*
X95956911Y-72340833D01*
X96015295Y-72534208D01*
X96110127Y-72712560D01*
X96237794Y-72869096D01*
X96383941Y-72990000D01*
X91560654Y-72990000D01*
X91468025Y-72811299D01*
X91342003Y-72653435D01*
X91331856Y-72643145D01*
X90405000Y-71716288D01*
X90405000Y-68995287D01*
X90554038Y-68817671D01*
X90640228Y-68660891D01*
X90714758Y-68801060D01*
X90891766Y-69018093D01*
X91107558Y-69196612D01*
X91353915Y-69329817D01*
X91621453Y-69412633D01*
X91899982Y-69441908D01*
X92178892Y-69416525D01*
X92447560Y-69337452D01*
X92695753Y-69207700D01*
X92914017Y-69032211D01*
X93094038Y-68817671D01*
X93180228Y-68660891D01*
X93254758Y-68801060D01*
X93431766Y-69018093D01*
X93647558Y-69196612D01*
X93893915Y-69329817D01*
X94161453Y-69412633D01*
X94439982Y-69441908D01*
X94718892Y-69416525D01*
X94987560Y-69337452D01*
X95235753Y-69207700D01*
X95454017Y-69032211D01*
X95634038Y-68817671D01*
X95768959Y-68572250D01*
X95853642Y-68305296D01*
X95884860Y-68026979D01*
X95885000Y-68006943D01*
X95885000Y-67993057D01*
X95857671Y-67714331D01*
X95776724Y-67446221D01*
X95645242Y-67198940D01*
X95468234Y-66981907D01*
X95252442Y-66803388D01*
X95006085Y-66670183D01*
X94738547Y-66587367D01*
X94473188Y-66559476D01*
X94381857Y-66468145D01*
X94381851Y-66468140D01*
X93123712Y-65210000D01*
X98915280Y-65210000D01*
X100316746Y-65347415D01*
G36*
X91585986Y-66599698D02*
X91372440Y-66662548D01*
X91124247Y-66792300D01*
X90905983Y-66967789D01*
X90725962Y-67182329D01*
X90639772Y-67339109D01*
X90565242Y-67198940D01*
X90388234Y-66981907D01*
X90172442Y-66803388D01*
X89926085Y-66670183D01*
X89658547Y-66587367D01*
X89380018Y-66558092D01*
X89101108Y-66583475D01*
X88832440Y-66662548D01*
X88584247Y-66792300D01*
X88365983Y-66967789D01*
X88185962Y-67182329D01*
X88099344Y-67339888D01*
X87982385Y-67144869D01*
X87793414Y-66936481D01*
X87567420Y-66768963D01*
X87313087Y-66648754D01*
X87179039Y-66608096D01*
X86957000Y-66730085D01*
X86957000Y-67873000D01*
X86977000Y-67873000D01*
X86977000Y-68127000D01*
X86957000Y-68127000D01*
X86957000Y-68147000D01*
X86703000Y-68147000D01*
X86703000Y-68127000D01*
X86683000Y-68127000D01*
X86683000Y-67873000D01*
X86703000Y-67873000D01*
X86703000Y-66730085D01*
X86480961Y-66608096D01*
X86346913Y-66648754D01*
X86160000Y-66737097D01*
X86160000Y-66700000D01*
X86150668Y-66604818D01*
X86142338Y-66509610D01*
X86140820Y-66504386D01*
X86140289Y-66498967D01*
X86112653Y-66407434D01*
X86091606Y-66334990D01*
X91321277Y-66334989D01*
X91585986Y-66599698D01*
X91585986Y-66599698D01*
G37*
X91585986Y-66599698D02*
X91372440Y-66662548D01*
X91124247Y-66792300D01*
X90905983Y-66967789D01*
X90725962Y-67182329D01*
X90639772Y-67339109D01*
X90565242Y-67198940D01*
X90388234Y-66981907D01*
X90172442Y-66803388D01*
X89926085Y-66670183D01*
X89658547Y-66587367D01*
X89380018Y-66558092D01*
X89101108Y-66583475D01*
X88832440Y-66662548D01*
X88584247Y-66792300D01*
X88365983Y-66967789D01*
X88185962Y-67182329D01*
X88099344Y-67339888D01*
X87982385Y-67144869D01*
X87793414Y-66936481D01*
X87567420Y-66768963D01*
X87313087Y-66648754D01*
X87179039Y-66608096D01*
X86957000Y-66730085D01*
X86957000Y-67873000D01*
X86977000Y-67873000D01*
X86977000Y-68127000D01*
X86957000Y-68127000D01*
X86957000Y-68147000D01*
X86703000Y-68147000D01*
X86703000Y-68127000D01*
X86683000Y-68127000D01*
X86683000Y-67873000D01*
X86703000Y-67873000D01*
X86703000Y-66730085D01*
X86480961Y-66608096D01*
X86346913Y-66648754D01*
X86160000Y-66737097D01*
X86160000Y-66700000D01*
X86150668Y-66604818D01*
X86142338Y-66509610D01*
X86140820Y-66504386D01*
X86140289Y-66498967D01*
X86112653Y-66407434D01*
X86091606Y-66334990D01*
X91321277Y-66334989D01*
X91585986Y-66599698D01*
M02*
