G04 #@! TF.FileFunction,Legend,Bot*
%FSLAX46Y46*%
G04 Gerber Fmt 4.6, Leading zero omitted, Abs format (unit mm)*
G04 Created by KiCad (PCBNEW (2015-11-17 BZR 6321)-product) date Thu 03 Dec 2015 08:01:09 PM EST*
%MOMM*%
G01*
G04 APERTURE LIST*
%ADD10C,0.100000*%
%ADD11C,0.150000*%
%ADD12C,0.088900*%
%ADD13R,2.400000X2.000000*%
%ADD14R,1.400000X1.000000*%
%ADD15O,2.000000X2.000000*%
%ADD16R,1.200100X2.200860*%
%ADD17R,2.100000X2.400000*%
%ADD18C,1.924000*%
%ADD19C,2.000200*%
%ADD20C,1.300000*%
%ADD21C,1.299160*%
G04 APERTURE END LIST*
D10*
D11*
X82000505Y-89285787D02*
G75*
G02X90485786Y-80800505I9899495J-1414213D01*
G01*
X101799495Y-92114213D02*
G75*
G02X93314214Y-100599495I-9899495J1414213D01*
G01*
X82000505Y-96356854D02*
X78464971Y-92821320D01*
X89778680Y-104135029D02*
X86243146Y-100599495D01*
X97556854Y-80800505D02*
X94021320Y-77264971D01*
X104097592Y-87341243D02*
X101799495Y-85043146D01*
X97556854Y-96356854D02*
X104097592Y-89816117D01*
X104097592Y-89816117D02*
X104097592Y-87341243D01*
X93667767Y-79739845D02*
X94374874Y-79032738D01*
X90132233Y-102367262D02*
X89425126Y-101660155D01*
X90680067Y-102013708D02*
G75*
G03X90680067Y-102013708I-901387J0D01*
G01*
X78464971Y-92821320D02*
X94021320Y-77264971D01*
X102011627Y-78113499D02*
X100738835Y-79386292D01*
X104486501Y-80588373D02*
X102011627Y-78113499D01*
X103213708Y-81861165D02*
X104486501Y-80588373D01*
X99854951Y-78502408D02*
X97556854Y-80800505D01*
X104097592Y-82745049D02*
X99854951Y-78502408D01*
X101799495Y-85043146D02*
X104097592Y-82745049D01*
X101900000Y-90700000D02*
G75*
G03X101900000Y-90700000I-10000000J0D01*
G01*
X89778680Y-104135029D02*
X97556854Y-96356854D01*
X80586292Y-99538835D02*
X79313499Y-100811627D01*
X83945049Y-102897592D02*
X86243146Y-100599495D01*
X79313499Y-100811627D02*
X81788373Y-103286501D01*
X79702408Y-98654951D02*
X83945049Y-102897592D01*
X82000505Y-96356854D02*
X79702408Y-98654951D01*
X81788373Y-103286501D02*
X83061165Y-102013708D01*
X94922708Y-79386292D02*
G75*
G03X94922708Y-79386292I-901388J0D01*
G01*
X94374874Y-79739845D02*
X93667767Y-79032738D01*
X100950000Y-69525000D02*
X98950000Y-69525000D01*
X98950000Y-67475000D02*
X100950000Y-67475000D01*
X78364124Y-110500089D02*
X76949911Y-109085876D01*
X79035876Y-106999911D02*
X80450089Y-108414124D01*
X91125000Y-70575000D02*
X93125000Y-70575000D01*
X93125000Y-72625000D02*
X91125000Y-72625000D01*
X99126777Y-105573223D02*
X99303553Y-105396447D01*
X98773223Y-105926777D02*
X98596447Y-106103553D01*
X98773223Y-105926777D02*
X99374264Y-105820711D01*
X99374264Y-105820711D02*
X98879289Y-105325736D01*
X98879289Y-105325736D02*
X98773223Y-105926777D01*
X99020711Y-106174264D02*
X98525736Y-105679289D01*
X97465076Y-106103553D02*
X99162132Y-104406497D01*
X98596447Y-107234924D02*
X100293503Y-105537868D01*
X81350642Y-107369042D02*
X81173866Y-107192266D01*
X81704196Y-107722596D02*
X81880972Y-107899372D01*
X81704196Y-107722596D02*
X81598130Y-107121555D01*
X81598130Y-107121555D02*
X81103155Y-107616530D01*
X81103155Y-107616530D02*
X81704196Y-107722596D01*
X81951683Y-107475108D02*
X81456708Y-107970083D01*
X81880972Y-109030743D02*
X80183916Y-107333687D01*
X83012343Y-107899372D02*
X81315287Y-106202316D01*
X84700000Y-110000000D02*
X84450000Y-110000000D01*
X85200000Y-110000000D02*
X85450000Y-110000000D01*
X85200000Y-110000000D02*
X84700000Y-109650000D01*
X84700000Y-109650000D02*
X84700000Y-110350000D01*
X84700000Y-110350000D02*
X85200000Y-110000000D01*
X85200000Y-109650000D02*
X85200000Y-110350000D01*
X86250000Y-110800000D02*
X83850000Y-110800000D01*
X86250000Y-109200000D02*
X83850000Y-109200000D01*
X102200180Y-94698060D02*
X102200180Y-95399100D01*
X102200180Y-95399100D02*
X102449100Y-95399100D01*
X104999160Y-95399100D02*
X105199820Y-95399100D01*
X105199820Y-95399100D02*
X105199820Y-94698060D01*
X100225000Y-74300000D02*
X100225000Y-72300000D01*
X98075000Y-72300000D02*
X98075000Y-74300000D01*
X75125000Y-74000000D02*
X75125000Y-76000000D01*
X77275000Y-76000000D02*
X77275000Y-74000000D01*
X100875000Y-72250000D02*
X100875000Y-74250000D01*
X103025000Y-74250000D02*
X103025000Y-72250000D01*
X81875000Y-71978608D02*
X81875000Y-73978608D01*
X84025000Y-73978608D02*
X84025000Y-71978608D01*
X79029678Y-71978608D02*
X79029678Y-73978608D01*
X81179678Y-73978608D02*
X81179678Y-71978608D01*
X77275000Y-83500000D02*
X77275000Y-81500000D01*
X75125000Y-81500000D02*
X75125000Y-83500000D01*
X84838819Y-105781461D02*
X86253033Y-104367247D01*
X84732753Y-102846967D02*
X83318539Y-104261181D01*
X91495076Y-89143908D02*
X91427732Y-89278595D01*
X91427733Y-89345939D01*
X91461405Y-89446955D01*
X91562420Y-89547970D01*
X91663435Y-89581641D01*
X91730778Y-89581641D01*
X91831794Y-89547970D01*
X92101168Y-89278595D01*
X91394061Y-88571488D01*
X91158359Y-88807191D01*
X91124687Y-88908206D01*
X91124687Y-88975550D01*
X91158359Y-89076565D01*
X91225702Y-89143908D01*
X91326717Y-89177580D01*
X91394061Y-89177580D01*
X91495076Y-89143908D01*
X91730778Y-88908206D01*
X90787970Y-89177580D02*
X90383908Y-89581641D01*
X91293046Y-90086717D02*
X90585939Y-89379610D01*
X90249222Y-89851015D02*
X90181878Y-89851015D01*
X90080863Y-89884687D01*
X89912504Y-90053046D01*
X89878832Y-90154061D01*
X89878832Y-90221405D01*
X89912504Y-90322420D01*
X89979847Y-90389763D01*
X90114534Y-90457107D01*
X90922657Y-90457107D01*
X90484924Y-90894840D01*
X100407143Y-68393334D02*
X100454762Y-68345715D01*
X100502381Y-68202858D01*
X100502381Y-68107620D01*
X100454762Y-67964762D01*
X100359524Y-67869524D01*
X100264286Y-67821905D01*
X100073810Y-67774286D01*
X99930952Y-67774286D01*
X99740476Y-67821905D01*
X99645238Y-67869524D01*
X99550000Y-67964762D01*
X99502381Y-68107620D01*
X99502381Y-68202858D01*
X99550000Y-68345715D01*
X99597619Y-68393334D01*
X100502381Y-69345715D02*
X100502381Y-68774286D01*
X100502381Y-69060000D02*
X99502381Y-69060000D01*
X99645238Y-68964762D01*
X99740476Y-68869524D01*
X99788095Y-68774286D01*
X79090389Y-108894688D02*
X79157732Y-108894688D01*
X79292419Y-108827344D01*
X79359763Y-108760001D01*
X79427107Y-108625313D01*
X79427107Y-108490626D01*
X79393435Y-108389611D01*
X79292420Y-108221253D01*
X79191404Y-108120237D01*
X79023045Y-108019222D01*
X78922030Y-107985550D01*
X78787343Y-107985550D01*
X78652656Y-108052894D01*
X78585312Y-108120237D01*
X78517969Y-108254924D01*
X78517969Y-108322268D01*
X78248595Y-108591641D02*
X78181252Y-108591641D01*
X78080237Y-108625313D01*
X77911877Y-108793672D01*
X77878206Y-108894688D01*
X77878206Y-108962031D01*
X77911877Y-109063046D01*
X77979221Y-109130390D01*
X78113908Y-109197733D01*
X78922030Y-109197733D01*
X78484297Y-109635466D01*
X92537143Y-71413334D02*
X92584762Y-71365715D01*
X92632381Y-71222858D01*
X92632381Y-71127620D01*
X92584762Y-70984762D01*
X92489524Y-70889524D01*
X92394286Y-70841905D01*
X92203810Y-70794286D01*
X92060952Y-70794286D01*
X91870476Y-70841905D01*
X91775238Y-70889524D01*
X91680000Y-70984762D01*
X91632381Y-71127620D01*
X91632381Y-71222858D01*
X91680000Y-71365715D01*
X91727619Y-71413334D01*
X91632381Y-71746667D02*
X91632381Y-72365715D01*
X92013333Y-72032381D01*
X92013333Y-72175239D01*
X92060952Y-72270477D01*
X92108571Y-72318096D01*
X92203810Y-72365715D01*
X92441905Y-72365715D01*
X92537143Y-72318096D01*
X92584762Y-72270477D01*
X92632381Y-72175239D01*
X92632381Y-71889524D01*
X92584762Y-71794286D01*
X92537143Y-71746667D01*
X101099942Y-106856118D02*
X100392835Y-106149011D01*
X100224476Y-106317370D01*
X100157132Y-106452057D01*
X100157132Y-106586744D01*
X100190804Y-106687759D01*
X100291819Y-106856118D01*
X100392835Y-106957134D01*
X100561193Y-107058149D01*
X100662209Y-107091820D01*
X100796895Y-107091820D01*
X100931583Y-107024476D01*
X101099942Y-106856118D01*
X100022445Y-107933614D02*
X100426507Y-107529553D01*
X100224476Y-107731583D02*
X99517370Y-107024476D01*
X99685728Y-107058148D01*
X99820415Y-107058148D01*
X99921430Y-107024476D01*
X82369213Y-107343789D02*
X81662106Y-106636682D01*
X81493747Y-106805041D01*
X81426403Y-106939728D01*
X81426403Y-107074415D01*
X81460075Y-107175430D01*
X81561090Y-107343789D01*
X81662106Y-107444805D01*
X81830464Y-107545820D01*
X81931480Y-107579491D01*
X82066166Y-107579491D01*
X82200854Y-107512147D01*
X82369213Y-107343789D01*
X81056014Y-107377460D02*
X80988671Y-107377460D01*
X80887656Y-107411132D01*
X80719296Y-107579491D01*
X80685625Y-107680507D01*
X80685625Y-107747850D01*
X80719296Y-107848865D01*
X80786640Y-107916209D01*
X80921327Y-107983552D01*
X81729449Y-107983552D01*
X81291716Y-108421285D01*
X83302381Y-106261905D02*
X82302381Y-106261905D01*
X82302381Y-106500000D01*
X82350000Y-106642858D01*
X82445238Y-106738096D01*
X82540476Y-106785715D01*
X82730952Y-106833334D01*
X82873810Y-106833334D01*
X83064286Y-106785715D01*
X83159524Y-106738096D01*
X83254762Y-106642858D01*
X83302381Y-106500000D01*
X83302381Y-106261905D01*
X82302381Y-107166667D02*
X82302381Y-107785715D01*
X82683333Y-107452381D01*
X82683333Y-107595239D01*
X82730952Y-107690477D01*
X82778571Y-107738096D01*
X82873810Y-107785715D01*
X83111905Y-107785715D01*
X83207143Y-107738096D01*
X83254762Y-107690477D01*
X83302381Y-107595239D01*
X83302381Y-107309524D01*
X83254762Y-107214286D01*
X83207143Y-107166667D01*
X103795238Y-99106479D02*
X103890476Y-99058860D01*
X103985714Y-98963622D01*
X104128571Y-98820765D01*
X104223810Y-98773146D01*
X104319048Y-98773146D01*
X104271429Y-99011241D02*
X104366667Y-98963622D01*
X104461905Y-98868384D01*
X104509524Y-98677908D01*
X104509524Y-98344574D01*
X104461905Y-98154098D01*
X104366667Y-98058860D01*
X104271429Y-98011241D01*
X104080952Y-98011241D01*
X103985714Y-98058860D01*
X103890476Y-98154098D01*
X103842857Y-98344574D01*
X103842857Y-98677908D01*
X103890476Y-98868384D01*
X103985714Y-98963622D01*
X104080952Y-99011241D01*
X104271429Y-99011241D01*
X102890476Y-99011241D02*
X103461905Y-99011241D01*
X103176191Y-99011241D02*
X103176191Y-98011241D01*
X103271429Y-98154098D01*
X103366667Y-98249336D01*
X103461905Y-98296955D01*
X99196666Y-73782381D02*
X99530000Y-73306190D01*
X99768095Y-73782381D02*
X99768095Y-72782381D01*
X99387142Y-72782381D01*
X99291904Y-72830000D01*
X99244285Y-72877619D01*
X99196666Y-72972857D01*
X99196666Y-73115714D01*
X99244285Y-73210952D01*
X99291904Y-73258571D01*
X99387142Y-73306190D01*
X99768095Y-73306190D01*
X98244285Y-73782381D02*
X98815714Y-73782381D01*
X98530000Y-73782381D02*
X98530000Y-72782381D01*
X98625238Y-72925238D01*
X98720476Y-73020476D01*
X98815714Y-73068095D01*
X76366666Y-75452381D02*
X76700000Y-74976190D01*
X76938095Y-75452381D02*
X76938095Y-74452381D01*
X76557142Y-74452381D01*
X76461904Y-74500000D01*
X76414285Y-74547619D01*
X76366666Y-74642857D01*
X76366666Y-74785714D01*
X76414285Y-74880952D01*
X76461904Y-74928571D01*
X76557142Y-74976190D01*
X76938095Y-74976190D01*
X75985714Y-74547619D02*
X75938095Y-74500000D01*
X75842857Y-74452381D01*
X75604761Y-74452381D01*
X75509523Y-74500000D01*
X75461904Y-74547619D01*
X75414285Y-74642857D01*
X75414285Y-74738095D01*
X75461904Y-74880952D01*
X76033333Y-75452381D01*
X75414285Y-75452381D01*
X102116666Y-73782381D02*
X102450000Y-73306190D01*
X102688095Y-73782381D02*
X102688095Y-72782381D01*
X102307142Y-72782381D01*
X102211904Y-72830000D01*
X102164285Y-72877619D01*
X102116666Y-72972857D01*
X102116666Y-73115714D01*
X102164285Y-73210952D01*
X102211904Y-73258571D01*
X102307142Y-73306190D01*
X102688095Y-73306190D01*
X101783333Y-72782381D02*
X101164285Y-72782381D01*
X101497619Y-73163333D01*
X101354761Y-73163333D01*
X101259523Y-73210952D01*
X101211904Y-73258571D01*
X101164285Y-73353810D01*
X101164285Y-73591905D01*
X101211904Y-73687143D01*
X101259523Y-73734762D01*
X101354761Y-73782381D01*
X101640476Y-73782381D01*
X101735714Y-73734762D01*
X101783333Y-73687143D01*
X83166666Y-73472381D02*
X83500000Y-72996190D01*
X83738095Y-73472381D02*
X83738095Y-72472381D01*
X83357142Y-72472381D01*
X83261904Y-72520000D01*
X83214285Y-72567619D01*
X83166666Y-72662857D01*
X83166666Y-72805714D01*
X83214285Y-72900952D01*
X83261904Y-72948571D01*
X83357142Y-72996190D01*
X83738095Y-72996190D01*
X82309523Y-72805714D02*
X82309523Y-73472381D01*
X82547619Y-72424762D02*
X82785714Y-73139048D01*
X82166666Y-73139048D01*
X80171344Y-73430989D02*
X80504678Y-72954798D01*
X80742773Y-73430989D02*
X80742773Y-72430989D01*
X80361820Y-72430989D01*
X80266582Y-72478608D01*
X80218963Y-72526227D01*
X80171344Y-72621465D01*
X80171344Y-72764322D01*
X80218963Y-72859560D01*
X80266582Y-72907179D01*
X80361820Y-72954798D01*
X80742773Y-72954798D01*
X79266582Y-72430989D02*
X79742773Y-72430989D01*
X79790392Y-72907179D01*
X79742773Y-72859560D01*
X79647535Y-72811941D01*
X79409439Y-72811941D01*
X79314201Y-72859560D01*
X79266582Y-72907179D01*
X79218963Y-73002418D01*
X79218963Y-73240513D01*
X79266582Y-73335751D01*
X79314201Y-73383370D01*
X79409439Y-73430989D01*
X79647535Y-73430989D01*
X79742773Y-73383370D01*
X79790392Y-73335751D01*
X76356666Y-83002381D02*
X76690000Y-82526190D01*
X76928095Y-83002381D02*
X76928095Y-82002381D01*
X76547142Y-82002381D01*
X76451904Y-82050000D01*
X76404285Y-82097619D01*
X76356666Y-82192857D01*
X76356666Y-82335714D01*
X76404285Y-82430952D01*
X76451904Y-82478571D01*
X76547142Y-82526190D01*
X76928095Y-82526190D01*
X76023333Y-82002381D02*
X75356666Y-82002381D01*
X75785238Y-83002381D01*
X84577969Y-104827732D02*
X85150390Y-104726717D01*
X84982030Y-105231794D02*
X85689137Y-104524687D01*
X85419763Y-104255312D01*
X85318747Y-104221641D01*
X85251404Y-104221641D01*
X85150389Y-104255312D01*
X85049374Y-104356328D01*
X85015702Y-104457343D01*
X85015702Y-104524686D01*
X85049374Y-104625701D01*
X85318748Y-104895076D01*
X84577970Y-104019610D02*
X84678985Y-104053282D01*
X84746328Y-104053282D01*
X84847343Y-104019610D01*
X84881015Y-103985939D01*
X84914687Y-103884924D01*
X84914687Y-103817580D01*
X84881015Y-103716565D01*
X84746328Y-103581877D01*
X84645312Y-103548206D01*
X84577969Y-103548206D01*
X84476954Y-103581877D01*
X84443282Y-103615549D01*
X84409610Y-103716564D01*
X84409610Y-103783908D01*
X84443282Y-103884923D01*
X84577970Y-104019610D01*
X84611641Y-104120626D01*
X84611641Y-104187969D01*
X84577969Y-104288985D01*
X84443282Y-104423672D01*
X84342267Y-104457343D01*
X84274924Y-104457343D01*
X84173908Y-104423672D01*
X84039221Y-104288984D01*
X84005549Y-104187969D01*
X84005549Y-104120626D01*
X84039221Y-104019610D01*
X84173908Y-103884924D01*
X84274924Y-103851251D01*
X84342267Y-103851251D01*
X84443282Y-103884923D01*
D12*
X90256250Y-104745067D02*
X90384540Y-104018094D01*
X89743093Y-104231910D02*
X90641119Y-103333884D01*
X90983223Y-103675989D01*
X91025987Y-103804278D01*
X91025987Y-103889804D01*
X90983223Y-104018094D01*
X90854934Y-104146383D01*
X90726645Y-104189147D01*
X90641119Y-104189147D01*
X90512829Y-104146383D01*
X90170724Y-103804278D01*
X91410855Y-104103620D02*
X90812171Y-105300988D01*
X92009539Y-104702304D01*
X91881249Y-106370066D02*
X91368092Y-105856908D01*
X91624670Y-106113487D02*
X92522696Y-105215461D01*
X92308881Y-105258224D01*
X92137828Y-105258224D01*
X92009539Y-105215461D01*
X87066054Y-107168554D02*
X87964080Y-106270528D01*
X88306184Y-106612633D01*
X88348948Y-106740922D01*
X88348948Y-106826448D01*
X88306184Y-106954738D01*
X88177895Y-107083027D01*
X88049606Y-107125791D01*
X87964080Y-107125791D01*
X87835790Y-107083027D01*
X87493685Y-106740922D01*
X89033158Y-107339606D02*
X89204210Y-107510658D01*
X89246974Y-107638948D01*
X89246974Y-107810000D01*
X89118684Y-108023816D01*
X88819342Y-108323157D01*
X88605527Y-108451447D01*
X88434474Y-108451448D01*
X88306184Y-108408684D01*
X88135132Y-108237632D01*
X88092369Y-108109342D01*
X88092369Y-107938290D01*
X88220659Y-107724474D01*
X88520001Y-107425132D01*
X88733816Y-107296843D01*
X88904868Y-107296843D01*
X89033158Y-107339606D01*
X89674604Y-107981053D02*
X90187762Y-108494211D01*
X89033158Y-109135658D02*
X89931184Y-108237632D01*
X88320790Y-111485390D02*
X88754409Y-111919009D01*
X88254080Y-111952364D01*
X88354146Y-112052429D01*
X88387502Y-112152495D01*
X88387501Y-112219205D01*
X88354146Y-112319272D01*
X88187370Y-112486048D01*
X88087304Y-112519403D01*
X88020594Y-112519403D01*
X87920528Y-112486048D01*
X87720397Y-112285917D01*
X87687042Y-112185850D01*
X87687041Y-112119140D01*
X84327143Y-108892663D02*
X83926880Y-108492400D01*
X84127011Y-108692531D02*
X84827471Y-107992071D01*
X84660695Y-108025426D01*
X84527274Y-108025427D01*
X84427209Y-107992071D01*
X81561711Y-81910789D02*
X80834738Y-81782499D01*
X81048554Y-82423946D02*
X80150528Y-81525920D01*
X80492633Y-81183816D01*
X80620922Y-81141052D01*
X80706448Y-81141052D01*
X80834738Y-81183816D01*
X80963027Y-81312105D01*
X81005791Y-81440394D01*
X81005791Y-81525920D01*
X80963027Y-81654210D01*
X80620922Y-81996315D01*
X80920264Y-80756184D02*
X82117632Y-81354868D01*
X81518948Y-80157500D01*
X81861053Y-79986448D02*
X81861053Y-79900922D01*
X81903816Y-79772633D01*
X82117631Y-79558817D01*
X82245921Y-79516053D01*
X82331447Y-79516053D01*
X82459737Y-79558817D01*
X82545263Y-79644343D01*
X82630789Y-79815396D01*
X82630789Y-80841710D01*
X83186710Y-80285790D01*
X82968554Y-84033946D02*
X82070528Y-83135920D01*
X82412633Y-82793816D01*
X82540922Y-82751052D01*
X82626448Y-82751052D01*
X82754738Y-82793816D01*
X82883027Y-82922105D01*
X82925791Y-83050394D01*
X82925791Y-83135920D01*
X82883027Y-83264210D01*
X82540922Y-83606315D01*
X83139606Y-82066842D02*
X83310658Y-81895790D01*
X83438948Y-81853026D01*
X83610000Y-81853026D01*
X83823816Y-81981316D01*
X84123157Y-82280658D01*
X84251447Y-82494473D01*
X84251448Y-82665526D01*
X84208684Y-82793816D01*
X84037632Y-82964868D01*
X83909342Y-83007631D01*
X83738290Y-83007631D01*
X83524474Y-82879341D01*
X83225132Y-82579999D01*
X83096843Y-82366184D01*
X83096843Y-82195132D01*
X83139606Y-82066842D01*
X83781053Y-81425396D02*
X84294211Y-80912238D01*
X84935658Y-82066842D02*
X84037632Y-81168816D01*
X84989339Y-80733159D02*
X85422958Y-80299540D01*
X85456313Y-80799869D01*
X85556378Y-80699803D01*
X85656444Y-80666447D01*
X85723154Y-80666448D01*
X85823221Y-80699803D01*
X85989997Y-80866579D01*
X86023352Y-80966645D01*
X86023352Y-81033355D01*
X85989997Y-81133421D01*
X85789866Y-81333552D01*
X85689799Y-81366907D01*
X85623089Y-81366908D01*
X82396612Y-84726806D02*
X81996349Y-85127069D01*
X82196480Y-84926938D02*
X81496020Y-84226478D01*
X81529375Y-84393254D01*
X81529376Y-84526675D01*
X81496020Y-84626740D01*
%LPC*%
D10*
G36*
X80763069Y-104594648D02*
X78005352Y-101836931D01*
X80409515Y-99432768D01*
X83167232Y-102190485D01*
X80763069Y-104594648D01*
X80763069Y-104594648D01*
G37*
G36*
X103036931Y-76805352D02*
X105794648Y-79563069D01*
X103390485Y-81967232D01*
X100632768Y-79209515D01*
X103036931Y-76805352D01*
X103036931Y-76805352D01*
G37*
D13*
X97950000Y-68500000D03*
X101950000Y-68500000D03*
D10*
G36*
X75411953Y-107512563D02*
X77462563Y-105461953D01*
X79159619Y-107159009D01*
X77109009Y-109209619D01*
X75411953Y-107512563D01*
X75411953Y-107512563D01*
G37*
G36*
X78240381Y-110340991D02*
X80290991Y-108290381D01*
X81988047Y-109987437D01*
X79937437Y-112038047D01*
X78240381Y-110340991D01*
X78240381Y-110340991D01*
G37*
D13*
X94125000Y-71600000D03*
X90125000Y-71600000D03*
D10*
G36*
X97921160Y-107485947D02*
X97214053Y-106778840D01*
X98204002Y-105788891D01*
X98911109Y-106495998D01*
X97921160Y-107485947D01*
X97921160Y-107485947D01*
G37*
G36*
X99695998Y-105711109D02*
X98988891Y-105004002D01*
X99978840Y-104014053D01*
X100685947Y-104721160D01*
X99695998Y-105711109D01*
X99695998Y-105711109D01*
G37*
G36*
X83263366Y-108574659D02*
X82556259Y-109281766D01*
X81566310Y-108291817D01*
X82273417Y-107584710D01*
X83263366Y-108574659D01*
X83263366Y-108574659D01*
G37*
G36*
X81488528Y-106799821D02*
X80781421Y-107506928D01*
X79791472Y-106516979D01*
X80498579Y-105809872D01*
X81488528Y-106799821D01*
X81488528Y-106799821D01*
G37*
D14*
X86205000Y-110000000D03*
X83695000Y-110000000D03*
D15*
X94450000Y-68000000D03*
X91910000Y-68000000D03*
X89370000Y-68000000D03*
X86830000Y-68000000D03*
X86830000Y-75620000D03*
X89370000Y-75620000D03*
X91910000Y-75620000D03*
X94450000Y-75620000D03*
D16*
X102750000Y-93247720D03*
X104650000Y-93247720D03*
X103700000Y-96250000D03*
D17*
X99150000Y-71300000D03*
X99150000Y-75300000D03*
X76200000Y-77000000D03*
X76200000Y-73000000D03*
X101950000Y-75250000D03*
X101950000Y-71250000D03*
X82950000Y-74978608D03*
X82950000Y-70978608D03*
X80104678Y-74978608D03*
X80104678Y-70978608D03*
D18*
X101700000Y-96500000D03*
X103821320Y-98621320D03*
D17*
X76200000Y-80500000D03*
X76200000Y-84500000D03*
D10*
G36*
X86306066Y-101309010D02*
X87790990Y-102793934D01*
X86093934Y-104490990D01*
X84609010Y-103006066D01*
X86306066Y-101309010D01*
X86306066Y-101309010D01*
G37*
G36*
X83477638Y-104137438D02*
X84962562Y-105622362D01*
X83265506Y-107319418D01*
X81780582Y-105834494D01*
X83477638Y-104137438D01*
X83477638Y-104137438D01*
G37*
D19*
X96709872Y-107990128D03*
X101200000Y-103500000D03*
D20*
X76375000Y-94000000D03*
X76375000Y-97000000D03*
D21*
X79560857Y-87685193D02*
X79135193Y-88110857D01*
X78662832Y-86787168D02*
X78237168Y-87212832D01*
X80458883Y-88583219D02*
X80033219Y-89008883D01*
M02*
