M48
;DRILL file {KiCad (2015-11-17 BZR 6321)-product} date Thu 03 Dec 2015 08:00:19 PM EST
;FORMAT={-:-/ absolute / inch / decimal}
FMAT,2
INCH,TZ
T1C0.016
T2C0.024
T3C0.030
T4C0.031
T5C0.032
T6C0.039
%
G90
G05
M72
T1
X3.0038Y-3.2511
X3.033Y-2.7829
X3.061Y-3.0167
X3.0636Y-2.8588
X3.1258Y-4.1531
X3.1458Y-3.368
X3.1811Y-2.8803
X3.1988Y-2.6998
X3.2549Y-2.5709
X3.2598Y-3.0423
X3.3179Y-2.7264
X3.3318Y-3.0291
X3.3356Y-2.6102
X3.3543Y-2.8661
X3.3602Y-2.8081
X3.4291Y-2.7943
X3.44Y-2.7343
X3.4774Y-2.9144
X3.5669Y-2.8888
X3.6578Y-3.9351
X3.6594Y-3.2677
X3.69Y-3.0394
X3.7388Y-3.4051
X3.7808Y-3.0081
X3.7928Y-3.9911
X3.8178Y-2.7591
X3.8178Y-2.8401
X3.8838Y-3.0431
X3.9238Y-2.8851
X3.9238Y-3.1841
X3.9803Y-3.3878
X3.9918Y-3.0481
X3.9918Y-3.2491
X4.0039Y-3.7992
X4.1118Y-3.0561
X4.1201Y-3.2618
X4.1278Y-2.9651
X4.1318Y-3.0751
X4.1398Y-3.0492
T2
X3.0886Y-3.4252
X3.1239Y-3.4606
X3.1593Y-3.4959
T3
X4.0039Y-3.7992
X4.0875Y-3.8827
T4
X3.4185Y-2.6772
X3.4185Y-2.9772
X3.5185Y-2.6772
X3.5185Y-2.9772
X3.6185Y-2.6772
X3.6185Y-2.9772
X3.7185Y-2.6772
X3.7185Y-2.9772
T5
X3.1458Y-3.1183
X3.1458Y-3.2597
X3.2872Y-3.1183
X3.396Y-4.189
X3.5374Y-4.189
X3.5374Y-4.3304
T6
X3.8075Y-4.2516
X3.9843Y-4.0748
T0
M30
