G04 #@! TF.FileFunction,Legend,Top*
%FSLAX46Y46*%
G04 Gerber Fmt 4.6, Leading zero omitted, Abs format (unit mm)*
G04 Created by KiCad (PCBNEW (2015-11-17 BZR 6321)-product) date Thu 03 Dec 2015 10:29:56 PM EST*
%MOMM*%
G01*
G04 APERTURE LIST*
%ADD10C,0.100000*%
%ADD11C,0.150000*%
%ADD12C,0.152400*%
%ADD13C,0.177800*%
%ADD14C,0.088900*%
G04 APERTURE END LIST*
D10*
D11*
X90485787Y-80800505D02*
G75*
G03X82000505Y-89285786I1414213J-9899495D01*
G01*
X93314213Y-100599495D02*
G75*
G03X101799495Y-92114214I-1414213J9899495D01*
G01*
X97556854Y-80800505D02*
X94021320Y-77264971D01*
X105335029Y-88578680D02*
X101799495Y-85043146D01*
X82000505Y-96356854D02*
X78464971Y-92821320D01*
X88541243Y-102897592D02*
X86243146Y-100599495D01*
X97556854Y-96356854D02*
X91016117Y-102897592D01*
X91016117Y-102897592D02*
X88541243Y-102897592D01*
X80939845Y-92467767D02*
X80232738Y-93174874D01*
X103567262Y-88932233D02*
X102860155Y-88225126D01*
X104115095Y-88578680D02*
G75*
G03X104115095Y-88578680I-901387J0D01*
G01*
X94021320Y-77264971D02*
X78464971Y-92821320D01*
X79313499Y-100811627D02*
X80586292Y-99538835D01*
X81788373Y-103286501D02*
X79313499Y-100811627D01*
X83061165Y-102013708D02*
X81788373Y-103286501D01*
X79702408Y-98654951D02*
X82000505Y-96356854D01*
X83945049Y-102897592D02*
X79702408Y-98654951D01*
X86243146Y-100599495D02*
X83945049Y-102897592D01*
X101900000Y-90700000D02*
G75*
G03X101900000Y-90700000I-10000000J0D01*
G01*
X105335029Y-88578680D02*
X97556854Y-96356854D01*
X100738835Y-79386292D02*
X102011627Y-78113499D01*
X104097592Y-82745049D02*
X101799495Y-85043146D01*
X102011627Y-78113499D02*
X104486501Y-80588373D01*
X99854951Y-78502408D02*
X104097592Y-82745049D01*
X97556854Y-80800505D02*
X99854951Y-78502408D01*
X104486501Y-80588373D02*
X103213708Y-81861165D01*
X81487680Y-92821320D02*
G75*
G03X81487680Y-92821320I-901388J0D01*
G01*
X80939845Y-93174874D02*
X80232738Y-92467767D01*
X96745000Y-68135000D02*
X95475000Y-68135000D01*
X96745000Y-75485000D02*
X95475000Y-75485000D01*
X84535000Y-75485000D02*
X85805000Y-75485000D01*
X84535000Y-68135000D02*
X85805000Y-68135000D01*
X96745000Y-68135000D02*
X96745000Y-75485000D01*
X84535000Y-68135000D02*
X84535000Y-75485000D01*
X95475000Y-68135000D02*
X95475000Y-67200000D01*
X105260660Y-97560660D02*
G75*
G03X105260660Y-97560660I-2500000J0D01*
G01*
D12*
X85539477Y-108196051D02*
X85180267Y-108196051D01*
X88053949Y-110710523D02*
X88053949Y-111069733D01*
X89832040Y-109974142D02*
X90101447Y-110243549D01*
X90478618Y-108285854D02*
X90837828Y-108285854D01*
X89796119Y-106453881D02*
X90065526Y-106184474D01*
X87874344Y-105681579D02*
X87874344Y-105322369D01*
X86275858Y-106417960D02*
X86006451Y-106148553D01*
D13*
X87155923Y-106849013D02*
X88053949Y-107747038D01*
X88053949Y-107747038D02*
X88951975Y-106849013D01*
X88951975Y-106849013D02*
X89400987Y-107298025D01*
X89400987Y-107298025D02*
X88502962Y-108196051D01*
X88502962Y-108196051D02*
X89400987Y-109094077D01*
X89400987Y-109094077D02*
X88951975Y-109543089D01*
X88951975Y-109543089D02*
X88053949Y-108645064D01*
X88053949Y-108645064D02*
X87155923Y-109543089D01*
X87155923Y-109543089D02*
X86706911Y-109094077D01*
X86706911Y-109094077D02*
X87604936Y-108196051D01*
X87604936Y-108196051D02*
X86706911Y-107298025D01*
X86706911Y-107298025D02*
X87155923Y-106849013D01*
X88053949Y-103256910D02*
X92993090Y-108196051D01*
X92993090Y-108196051D02*
X88053949Y-113135192D01*
X88053949Y-113135192D02*
X83114808Y-108196051D01*
X83114808Y-108196051D02*
X88053949Y-103256910D01*
D14*
X89361474Y-108196051D02*
G75*
G03X89361474Y-108196051I-1307525J0D01*
G01*
D13*
X87833272Y-110665966D02*
G75*
G03X85584379Y-108420557I220677J2469915D01*
G01*
D12*
X81700000Y-83514472D02*
X81700000Y-83873682D01*
X84214472Y-81000000D02*
X84573682Y-81000000D01*
X83478091Y-79221909D02*
X83747498Y-78952502D01*
X81789803Y-78575331D02*
X81789803Y-78216121D01*
X79957830Y-79257830D02*
X79688423Y-78988423D01*
X79185528Y-81179605D02*
X78826318Y-81179605D01*
X79921909Y-82778091D02*
X79652502Y-83047498D01*
D13*
X80352962Y-81898026D02*
X81250987Y-81000000D01*
X81250987Y-81000000D02*
X80352962Y-80101974D01*
X80352962Y-80101974D02*
X80801974Y-79652962D01*
X80801974Y-79652962D02*
X81700000Y-80550987D01*
X81700000Y-80550987D02*
X82598026Y-79652962D01*
X82598026Y-79652962D02*
X83047038Y-80101974D01*
X83047038Y-80101974D02*
X82149013Y-81000000D01*
X82149013Y-81000000D02*
X83047038Y-81898026D01*
X83047038Y-81898026D02*
X82598026Y-82347038D01*
X82598026Y-82347038D02*
X81700000Y-81449013D01*
X81700000Y-81449013D02*
X80801974Y-82347038D01*
X80801974Y-82347038D02*
X80352962Y-81898026D01*
X76760859Y-81000000D02*
X81700000Y-76060859D01*
X81700000Y-76060859D02*
X86639141Y-81000000D01*
X86639141Y-81000000D02*
X81700000Y-85939141D01*
X81700000Y-85939141D02*
X76760859Y-81000000D01*
D14*
X83007525Y-81000000D02*
G75*
G03X83007525Y-81000000I-1307525J0D01*
G01*
D13*
X84169915Y-81220677D02*
G75*
G03X81924506Y-83469570I-2469915J220677D01*
G01*
D11*
X102137539Y-101854817D02*
X102845183Y-102562461D01*
X102137539Y-102562461D02*
X102843387Y-101856613D01*
X99955696Y-105745064D02*
G75*
G03X99955696Y-105745064I-1000760J0D01*
G01*
X105155076Y-105745064D02*
G75*
G03X105155076Y-105745064I-6200140J0D01*
G01*
X97450000Y-68625000D02*
X97650000Y-68625000D01*
X103450000Y-68625000D02*
X103250000Y-68625000D01*
X103450000Y-74625000D02*
X103250000Y-74625000D01*
X97450000Y-74625000D02*
X97650000Y-74625000D01*
X99250000Y-74625000D02*
X101650000Y-74625000D01*
X99250000Y-68625000D02*
X101650000Y-68625000D01*
X97450000Y-68625000D02*
X97450000Y-74625000D01*
X103450000Y-74625000D02*
X103450000Y-68625000D01*
X102150000Y-71625000D02*
G75*
G03X102150000Y-71625000I-1700000J0D01*
G01*
X77800000Y-68625000D02*
X78000000Y-68625000D01*
X83800000Y-68625000D02*
X83600000Y-68625000D01*
X83800000Y-74625000D02*
X83600000Y-74625000D01*
X77800000Y-74625000D02*
X78000000Y-74625000D01*
X79600000Y-74625000D02*
X82000000Y-74625000D01*
X79600000Y-68625000D02*
X82000000Y-68625000D01*
X77800000Y-68625000D02*
X77800000Y-74625000D01*
X83800000Y-74625000D02*
X83800000Y-68625000D01*
X82500000Y-71625000D02*
G75*
G03X82500000Y-71625000I-1700000J0D01*
G01*
X75375000Y-96250000D02*
X75075000Y-96250000D01*
X75375000Y-94750000D02*
X75075000Y-94750000D01*
X77675000Y-96900000D02*
X77675000Y-97100000D01*
X73775000Y-94100000D02*
X73575000Y-94300000D01*
X73775000Y-95400000D02*
X73575000Y-95200000D01*
X75075000Y-94100000D02*
X73775000Y-94100000D01*
X73575000Y-94300000D02*
X73575000Y-95200000D01*
X73775000Y-95400000D02*
X75075000Y-95400000D01*
X75075000Y-92650000D02*
X75075000Y-98350000D01*
X77675000Y-93900000D02*
X77675000Y-95600000D01*
X76775000Y-92150000D02*
X75975000Y-92150000D01*
X75975000Y-98850000D02*
X76775000Y-98850000D01*
X81752188Y-87898025D02*
X79348025Y-85493862D01*
X81748025Y-87898024D02*
G75*
G02X77650969Y-89595082I-2400000J-1D01*
G01*
X79348024Y-85498025D02*
G75*
G03X77650969Y-89595082I1J-2400000D01*
G01*
X91493908Y-91185076D02*
X91628595Y-91117732D01*
X91695939Y-91117733D01*
X91796955Y-91151405D01*
X91897970Y-91252420D01*
X91931641Y-91353435D01*
X91931641Y-91420778D01*
X91897970Y-91521794D01*
X91628595Y-91791168D01*
X90921488Y-91084061D01*
X91157191Y-90848359D01*
X91258206Y-90814687D01*
X91325550Y-90814687D01*
X91426565Y-90848359D01*
X91493908Y-90915702D01*
X91527580Y-91016717D01*
X91527580Y-91084061D01*
X91493908Y-91185076D01*
X91258206Y-91420778D01*
X91527580Y-90477970D02*
X91931641Y-90073908D01*
X92436717Y-90983046D02*
X91729610Y-90275939D01*
X93244840Y-90174924D02*
X92840778Y-90578985D01*
X93042809Y-90376955D02*
X92335702Y-89669848D01*
X92369374Y-89838206D01*
X92369374Y-89972893D01*
X92335702Y-90073908D01*
X92283810Y-74412381D02*
X92283810Y-73412381D01*
X93331429Y-74317143D02*
X93283810Y-74364762D01*
X93140953Y-74412381D01*
X93045715Y-74412381D01*
X92902857Y-74364762D01*
X92807619Y-74269524D01*
X92760000Y-74174286D01*
X92712381Y-73983810D01*
X92712381Y-73840952D01*
X92760000Y-73650476D01*
X92807619Y-73555238D01*
X92902857Y-73460000D01*
X93045715Y-73412381D01*
X93140953Y-73412381D01*
X93283810Y-73460000D01*
X93331429Y-73507619D01*
X94283810Y-74412381D02*
X93712381Y-74412381D01*
X93998095Y-74412381D02*
X93998095Y-73412381D01*
X93902857Y-73555238D01*
X93807619Y-73650476D01*
X93712381Y-73698095D01*
X101262269Y-98952031D02*
X101363284Y-98379610D01*
X100858207Y-98547970D02*
X101565314Y-97840863D01*
X101834689Y-98110237D01*
X101868360Y-98211253D01*
X101868360Y-98278596D01*
X101834689Y-98379611D01*
X101733673Y-98480626D01*
X101632658Y-98514298D01*
X101565315Y-98514298D01*
X101464300Y-98480626D01*
X101194925Y-98211252D01*
X102575467Y-98851016D02*
X102440779Y-98716328D01*
X102339764Y-98682657D01*
X102272421Y-98682657D01*
X102104062Y-98716328D01*
X101935704Y-98817343D01*
X101666329Y-99086718D01*
X101632658Y-99187733D01*
X101632658Y-99255076D01*
X101666329Y-99356092D01*
X101801017Y-99490779D01*
X101902032Y-99524451D01*
X101969375Y-99524451D01*
X102070391Y-99490779D01*
X102238749Y-99322421D01*
X102272422Y-99221405D01*
X102272422Y-99154061D01*
X102238750Y-99053046D01*
X102104062Y-98918359D01*
X102003047Y-98884687D01*
X101935704Y-98884687D01*
X101834688Y-98918359D01*
X99747323Y-108614906D02*
X99882010Y-108547562D01*
X100050370Y-108379203D01*
X100084041Y-108278188D01*
X100084041Y-108210844D01*
X100050370Y-108109829D01*
X99983026Y-108042486D01*
X99882011Y-108008814D01*
X99814668Y-108008814D01*
X99713652Y-108042485D01*
X99545292Y-108143501D01*
X99444277Y-108177172D01*
X99376934Y-108177172D01*
X99275919Y-108143501D01*
X99208575Y-108076157D01*
X99174903Y-107975142D01*
X99174903Y-107907799D01*
X99208575Y-107806784D01*
X99376934Y-107638424D01*
X99511621Y-107571081D01*
X100488102Y-107941470D02*
X99780995Y-107234364D01*
X100050370Y-106964989D01*
X100151385Y-106931318D01*
X100218728Y-106931318D01*
X100319743Y-106964989D01*
X100420758Y-107066004D01*
X100454430Y-107167020D01*
X100454430Y-107234363D01*
X100420758Y-107335378D01*
X100151384Y-107604753D01*
X101565598Y-106863974D02*
X101161537Y-107268035D01*
X101363567Y-107066005D02*
X100656460Y-106358898D01*
X100690132Y-106527257D01*
X100690132Y-106661944D01*
X100656460Y-106762959D01*
X104039809Y-100761207D02*
X104578557Y-100222458D01*
X104578557Y-100761206D02*
X104039809Y-100222458D01*
X99096667Y-72044762D02*
X99239524Y-72092381D01*
X99477620Y-72092381D01*
X99572858Y-72044762D01*
X99620477Y-71997143D01*
X99668096Y-71901905D01*
X99668096Y-71806667D01*
X99620477Y-71711429D01*
X99572858Y-71663810D01*
X99477620Y-71616190D01*
X99287143Y-71568571D01*
X99191905Y-71520952D01*
X99144286Y-71473333D01*
X99096667Y-71378095D01*
X99096667Y-71282857D01*
X99144286Y-71187619D01*
X99191905Y-71140000D01*
X99287143Y-71092381D01*
X99525239Y-71092381D01*
X99668096Y-71140000D01*
X100001429Y-71092381D02*
X100239524Y-72092381D01*
X100430001Y-71378095D01*
X100620477Y-72092381D01*
X100858572Y-71092381D01*
X101763334Y-72092381D02*
X101191905Y-72092381D01*
X101477619Y-72092381D02*
X101477619Y-71092381D01*
X101382381Y-71235238D01*
X101287143Y-71330476D01*
X101191905Y-71378095D01*
X79506667Y-72044762D02*
X79649524Y-72092381D01*
X79887620Y-72092381D01*
X79982858Y-72044762D01*
X80030477Y-71997143D01*
X80078096Y-71901905D01*
X80078096Y-71806667D01*
X80030477Y-71711429D01*
X79982858Y-71663810D01*
X79887620Y-71616190D01*
X79697143Y-71568571D01*
X79601905Y-71520952D01*
X79554286Y-71473333D01*
X79506667Y-71378095D01*
X79506667Y-71282857D01*
X79554286Y-71187619D01*
X79601905Y-71140000D01*
X79697143Y-71092381D01*
X79935239Y-71092381D01*
X80078096Y-71140000D01*
X80411429Y-71092381D02*
X80649524Y-72092381D01*
X80840001Y-71378095D01*
X81030477Y-72092381D01*
X81268572Y-71092381D01*
X81601905Y-71187619D02*
X81649524Y-71140000D01*
X81744762Y-71092381D01*
X81982858Y-71092381D01*
X82078096Y-71140000D01*
X82125715Y-71187619D01*
X82173334Y-71282857D01*
X82173334Y-71378095D01*
X82125715Y-71520952D01*
X81554286Y-72092381D01*
X82173334Y-72092381D01*
X80354762Y-97613333D02*
X80402381Y-97470476D01*
X80402381Y-97232380D01*
X80354762Y-97137142D01*
X80307143Y-97089523D01*
X80211905Y-97041904D01*
X80116667Y-97041904D01*
X80021429Y-97089523D01*
X79973810Y-97137142D01*
X79926190Y-97232380D01*
X79878571Y-97422857D01*
X79830952Y-97518095D01*
X79783333Y-97565714D01*
X79688095Y-97613333D01*
X79592857Y-97613333D01*
X79497619Y-97565714D01*
X79450000Y-97518095D01*
X79402381Y-97422857D01*
X79402381Y-97184761D01*
X79450000Y-97041904D01*
X79402381Y-96708571D02*
X80402381Y-96470476D01*
X79688095Y-96279999D01*
X80402381Y-96089523D01*
X79402381Y-95851428D01*
X79402381Y-95565714D02*
X79402381Y-94946666D01*
X79783333Y-95280000D01*
X79783333Y-95137142D01*
X79830952Y-95041904D01*
X79878571Y-94994285D01*
X79973810Y-94946666D01*
X80211905Y-94946666D01*
X80307143Y-94994285D01*
X80354762Y-95041904D01*
X80402381Y-95137142D01*
X80402381Y-95422857D01*
X80354762Y-95518095D01*
X80307143Y-95565714D01*
X80398477Y-85734027D02*
X79826057Y-86306447D01*
X79792385Y-86407462D01*
X79792385Y-86474805D01*
X79826057Y-86575820D01*
X79960745Y-86710508D01*
X80061760Y-86744180D01*
X80129103Y-86744180D01*
X80230118Y-86710508D01*
X80802538Y-86138088D01*
X80802538Y-87552302D02*
X80398477Y-87148240D01*
X80600507Y-87350271D02*
X81307614Y-86643164D01*
X81139255Y-86676836D01*
X81004569Y-86676836D01*
X80903553Y-86643164D01*
M02*
